<?xml version="1.0" encoding="UTF-8"?>
<svg version="1.1" xmlns="http://www.w3.org/2000/svg" width="224" height="210">
<path d="M0 0 C2.6875 -0.3125 2.6875 -0.3125 6 0 C8.625 2.25 8.625 2.25 11 5 C11.763125 5.721875 12.52625 6.44375 13.3125 7.1875 C15 9 15 9 15 11 C16.175625 11.3403125 16.175625 11.3403125 17.375 11.6875 C20.6994647 13.34973235 20.66486458 14.66216144 22 18 C22.825 18.33 23.65 18.66 24.5 19 C25.325 19.33 26.15 19.66 27 20 C27.66666667 21.66666667 28.33333333 23.33333333 29 25 C29.825 25.33 30.65 25.66 31.5 26 C32.325 26.33 33.15 26.66 34 27 C34.309375 27.825 34.61875 28.65 34.9375 29.5 C35.80354352 32.3445866 35.80354352 32.3445866 39.125 33.3125 C40.07375 33.539375 41.0225 33.76625 42 34 C42.33 35.98 42.66 37.96 43 40 C45.97 40.495 45.97 40.495 49 41 C49 42.98 49 44.96 49 47 C49.9787207 46.97905273 50.95744141 46.95810547 51.96582031 46.93652344 C55.60352904 46.86402037 59.24117416 46.81816367 62.87939453 46.78027344 C64.45274604 46.7601812 66.02602308 46.73290201 67.59912109 46.69824219 C69.86314272 46.64961506 72.12617573 46.62700865 74.390625 46.609375 C75.09181458 46.58872986 75.79300415 46.56808472 76.51544189 46.54681396 C79.96384985 46.54523632 81.70367794 46.77264441 84.47558594 48.89941406 C86 51 86 51 86 53 C86.78375 53.2475 87.5675 53.495 88.375 53.75 C91.46493987 55.22139994 91.53659227 56.07318455 93 59 C94.65816784 59.68753301 96.32459336 60.35561283 98 61 C99.15839043 64.47517129 99.22801218 67.6727002 99.31640625 71.29296875 C99.33718735 71.99899734 99.35796844 72.70502594 99.37937927 73.43244934 C99.44467491 75.68403551 99.50366647 77.93573662 99.5625 80.1875 C99.60570425 81.7155066 99.64931916 83.24350164 99.69335938 84.77148438 C99.80033574 88.51420562 99.90165922 92.2570423 100 96 C100.79277344 96.11472656 101.58554688 96.22945313 102.40234375 96.34765625 C105 97 105 97 106.5625 99.4375 C107.036875 100.283125 107.51125 101.12875 108 102 C110.06700655 103.32793606 110.06700655 103.32793606 112 104 C112.3125 106.8125 112.3125 106.8125 112 110 C109.6875 111.5625 109.6875 111.5625 107 113 C106.484375 113.86625 105.96875 114.7325 105.4375 115.625 C104 118 104 118 100 119 C99.67 146.39 99.34 173.78 99 202 C97.02 202.33 95.04 202.66 93 203 C92.67 204.98 92.34 206.96 92 209 C33.92 209 -24.16 209 -84 209 C-84.99 207.02 -85.98 205.04 -87 203 C-87.69609375 202.56042969 -88.3921875 202.12085938 -89.109375 201.66796875 C-92.22902034 198.91571966 -91.93615746 195.29764647 -92.25 191.3125 C-92.36601563 190.11657227 -92.36601563 190.11657227 -92.484375 188.89648438 C-92.67254285 186.93248243 -92.83843884 184.96636944 -93 183 C-94.65 182.34 -96.3 181.68 -98 181 C-98.66 171.76 -99.32 162.52 -100 153 C-101.98 153.33 -103.96 153.66 -106 154 C-106 144.1 -106 134.2 -106 124 C-107.98 124 -109.96 124 -112 124 C-112 112.45 -112 100.9 -112 89 C-109.69 89 -107.38 89 -105 89 C-105.33 86.69 -105.66 84.38 -106 82 C-102.84493858 81.06380187 -100.03413498 80.8942877 -96.75 80.9375 C-95.41195312 80.95103516 -95.41195312 80.95103516 -94.046875 80.96484375 C-93.37140625 80.97644531 -92.6959375 80.98804687 -92 81 C-92.00785522 79.35016113 -92.00785522 79.35016113 -92.01586914 77.66699219 C-92.03398464 73.58187678 -92.04545599 69.49676493 -92.05493164 65.41162109 C-92.05995687 63.64436241 -92.06677809 61.87710788 -92.07543945 60.10986328 C-92.08758428 57.56802343 -92.09324645 55.0262386 -92.09765625 52.484375 C-92.10281754 51.69569031 -92.10797882 50.90700562 -92.11329651 50.09442139 C-92.11402082 42.99367182 -92.11402082 42.99367182 -91 40 C-90.030625 39.690625 -89.06125 39.38125 -88.0625 39.0625 C-87.051875 38.711875 -86.04125 38.36125 -85 38 C-84.29788106 36.34795544 -83.63028587 34.68076231 -83 33 C-81.34183216 32.31246699 -79.67540664 31.64438717 -78 31 C-77.31179907 28.98232651 -77.31179907 28.98232651 -77 27 C-75.93265625 26.97494385 -74.8653125 26.9498877 -73.765625 26.92407227 C-69.72485609 26.82838404 -65.68419644 26.72858906 -61.64355469 26.62768555 C-59.9098571 26.58493552 -58.17613332 26.5432324 -56.44238281 26.50268555 C-51.43145853 26.38510592 -46.42247551 26.23996145 -41.41308594 26.06915283 C-39.04837385 26.00138627 -36.68583675 25.97436578 -34.3203125 25.95263672 C-32.88017682 25.91626615 -31.44006991 25.87873156 -30 25.83984375 C-28.741875 25.82171631 -27.48375 25.80358887 -26.1875 25.78491211 C-22.71765458 25.28348935 -22.71765458 25.28348935 -20.6953125 21.98266602 C-20.13585937 20.99838623 -19.57640625 20.01410645 -19 19 C-17.67139075 18.64830932 -16.33841672 18.31229724 -15 18 C-14.5359375 16.824375 -14.5359375 16.824375 -14.0625 15.625 C-12.70065406 12.26043944 -11.07195279 11.79821627 -8 10 C-6.97695052 8.34738161 -5.97383946 6.68208635 -5 5 C-4.01 4.67 -3.02 4.34 -2 4 C-0.79117904 1.99983534 -0.79117904 1.99983534 0 0 Z " fill="#FDFA9D" transform="translate(112,1)"/>
<path d="M0 0 C2.6875 -0.3125 2.6875 -0.3125 6 0 C8.625 2.25 8.625 2.25 11 5 C11.763125 5.721875 12.52625 6.44375 13.3125 7.1875 C15 9 15 9 15 11 C16.175625 11.3403125 16.175625 11.3403125 17.375 11.6875 C20.6994647 13.34973235 20.66486458 14.66216144 22 18 C22.825 18.33 23.65 18.66 24.5 19 C25.325 19.33 26.15 19.66 27 20 C27.66666667 21.66666667 28.33333333 23.33333333 29 25 C29.825 25.33 30.65 25.66 31.5 26 C32.325 26.33 33.15 26.66 34 27 C34.309375 27.825 34.61875 28.65 34.9375 29.5 C35.80354352 32.3445866 35.80354352 32.3445866 39.125 33.3125 C40.07375 33.539375 41.0225 33.76625 42 34 C42.33 35.98 42.66 37.96 43 40 C45.97 40.495 45.97 40.495 49 41 C49 42.98 49 44.96 49 47 C49.9787207 46.97905273 50.95744141 46.95810547 51.96582031 46.93652344 C55.60352904 46.86402037 59.24117416 46.81816367 62.87939453 46.78027344 C64.45274604 46.7601812 66.02602308 46.73290201 67.59912109 46.69824219 C69.86314272 46.64961506 72.12617573 46.62700865 74.390625 46.609375 C75.09181458 46.58872986 75.79300415 46.56808472 76.51544189 46.54681396 C79.96384985 46.54523632 81.70367794 46.77264441 84.47558594 48.89941406 C86 51 86 51 86 53 C86.78375 53.2475 87.5675 53.495 88.375 53.75 C91.46493987 55.22139994 91.53659227 56.07318455 93 59 C94.65816784 59.68753301 96.32459336 60.35561283 98 61 C99.15839043 64.47517129 99.22801218 67.6727002 99.31640625 71.29296875 C99.33718735 71.99899734 99.35796844 72.70502594 99.37937927 73.43244934 C99.44467491 75.68403551 99.50366647 77.93573662 99.5625 80.1875 C99.60570425 81.7155066 99.64931916 83.24350164 99.69335938 84.77148438 C99.80033574 88.51420562 99.90165922 92.2570423 100 96 C100.79277344 96.11472656 101.58554688 96.22945313 102.40234375 96.34765625 C105 97 105 97 106.5625 99.4375 C107.036875 100.283125 107.51125 101.12875 108 102 C110.06700655 103.32793606 110.06700655 103.32793606 112 104 C112.3125 106.8125 112.3125 106.8125 112 110 C109.6875 111.5625 109.6875 111.5625 107 113 C106.484375 113.86625 105.96875 114.7325 105.4375 115.625 C104 118 104 118 100 119 C99.67 146.39 99.34 173.78 99 202 C97.02 202.33 95.04 202.66 93 203 C92.67 204.98 92.34 206.96 92 209 C33.92 209 -24.16 209 -84 209 C-84.99 207.02 -85.98 205.04 -87 203 C-87.69609375 202.56042969 -88.3921875 202.12085938 -89.109375 201.66796875 C-92.22902034 198.91571966 -91.93615746 195.29764647 -92.25 191.3125 C-92.36601563 190.11657227 -92.36601563 190.11657227 -92.484375 188.89648438 C-92.67254285 186.93248243 -92.83843884 184.96636944 -93 183 C-94.65 182.34 -96.3 181.68 -98 181 C-98.66 171.76 -99.32 162.52 -100 153 C-101.98 153.33 -103.96 153.66 -106 154 C-106 144.1 -106 134.2 -106 124 C-107.98 124 -109.96 124 -112 124 C-112 112.45 -112 100.9 -112 89 C-109.69 89 -107.38 89 -105 89 C-105.33 86.69 -105.66 84.38 -106 82 C-102.84493858 81.06380187 -100.03413498 80.8942877 -96.75 80.9375 C-95.41195312 80.95103516 -95.41195312 80.95103516 -94.046875 80.96484375 C-93.37140625 80.97644531 -92.6959375 80.98804687 -92 81 C-92.00785522 79.35016113 -92.00785522 79.35016113 -92.01586914 77.66699219 C-92.03398464 73.58187678 -92.04545599 69.49676493 -92.05493164 65.41162109 C-92.05995687 63.64436241 -92.06677809 61.87710788 -92.07543945 60.10986328 C-92.08758428 57.56802343 -92.09324645 55.0262386 -92.09765625 52.484375 C-92.10281754 51.69569031 -92.10797882 50.90700562 -92.11329651 50.09442139 C-92.11402082 42.99367182 -92.11402082 42.99367182 -91 40 C-90.030625 39.690625 -89.06125 39.38125 -88.0625 39.0625 C-87.051875 38.711875 -86.04125 38.36125 -85 38 C-84.29788106 36.34795544 -83.63028587 34.68076231 -83 33 C-81.34183216 32.31246699 -79.67540664 31.64438717 -78 31 C-77.31179907 28.98232651 -77.31179907 28.98232651 -77 27 C-75.93265625 26.97494385 -74.8653125 26.9498877 -73.765625 26.92407227 C-69.72485609 26.82838404 -65.68419644 26.72858906 -61.64355469 26.62768555 C-59.9098571 26.58493552 -58.17613332 26.5432324 -56.44238281 26.50268555 C-51.43145853 26.38510592 -46.42247551 26.23996145 -41.41308594 26.06915283 C-39.04837385 26.00138627 -36.68583675 25.97436578 -34.3203125 25.95263672 C-32.88017682 25.91626615 -31.44006991 25.87873156 -30 25.83984375 C-28.741875 25.82171631 -27.48375 25.80358887 -26.1875 25.78491211 C-22.71765458 25.28348935 -22.71765458 25.28348935 -20.6953125 21.98266602 C-20.13585937 20.99838623 -19.57640625 20.01410645 -19 19 C-17.67139075 18.64830932 -16.33841672 18.31229724 -15 18 C-14.5359375 16.824375 -14.5359375 16.824375 -14.0625 15.625 C-12.70065406 12.26043944 -11.07195279 11.79821627 -8 10 C-6.97695052 8.34738161 -5.97383946 6.68208635 -5 5 C-4.01 4.67 -3.02 4.34 -2 4 C-0.79117904 1.99983534 -0.79117904 1.99983534 0 0 Z M56 90 C56.99 91.98 56.99 91.98 58 94 C57.34 94.33 56.68 94.66 56 95 C55.01 93.02 55.01 93.02 54 91 C1.53 91 -50.94 91 -105 91 C-105 102.22 -105 113.44 -105 125 C-102.69 125 -100.38 125 -98 125 C-98.00785522 126.0669812 -98.00785522 126.0669812 -98.01586914 127.15551758 C-98.03664018 130.37450275 -98.04966058 133.59347383 -98.0625 136.8125 C-98.07087891 137.93205078 -98.07925781 139.05160156 -98.08789062 140.20507812 C-98.09111328 141.27822266 -98.09433594 142.35136719 -98.09765625 143.45703125 C-98.10289307 144.44678955 -98.10812988 145.43654785 -98.11352539 146.45629883 C-98.11069959 149.12392734 -98.11069959 149.12392734 -97 152 C-94.58354218 152.16687448 -94.58354218 152.16687448 -92 152 C-91.34 151.34 -90.68 150.68 -90 150 C-87.375 150.375 -87.375 150.375 -85 151 C-85.33 151.99 -85.66 152.98 -86 154 C-86.99 154 -87.98 154 -89 154 C-90.27861615 156.55723229 -90.11336609 158.36737102 -90.09765625 161.2265625 C-90.09443359 162.2578125 -90.09121094 163.2890625 -90.08789062 164.3515625 C-90.07951172 165.43179688 -90.07113281 166.51203125 -90.0625 167.625 C-90.05798828 168.71296875 -90.05347656 169.8009375 -90.04882812 170.921875 C-90.03701776 173.61463789 -90.02054778 176.30729188 -90 179 C-88.35 179 -86.7 179 -85 179 C-85.33 179.33 -85.66 179.66 -86 180 C-85.34 180.33 -84.68 180.66 -84 181 C-84 185.62 -84 190.24 -84 195 C-28.56 195 26.88 195 84 195 C84 176.52 84 158.04 84 139 C81.69 139 79.38 139 77 139 C77.00523682 138.39937744 77.01047363 137.79875488 77.01586914 137.17993164 C77.03658014 134.47413162 77.04964125 131.76834823 77.0625 129.0625 C77.07087891 128.11697266 77.07925781 127.17144531 77.08789062 126.19726562 C77.09111328 125.29814453 77.09433594 124.39902344 77.09765625 123.47265625 C77.10289307 122.64000244 77.10812988 121.80734863 77.11352539 120.94946289 C77.21643292 118.99483202 77.21643292 118.99483202 76 118 C74.02 118 72.04 118 70 118 C70 113.38 70 108.76 70 104 C67.69 104 65.38 104 63 104 C63 99.38 63 94.76 63 90 C60.69 90 58.38 90 56 90 Z " fill="#AEAEA9" transform="translate(112,1)"/>
<path d="M0 0 C1.99954746 -0.04254356 4.00041636 -0.04080783 6 0 C7 1 7 1 7.11352539 2.94946289 C7.10828857 3.7821167 7.10305176 4.61477051 7.09765625 5.47265625 C7.09443359 6.37177734 7.09121094 7.27089844 7.08789062 8.19726562 C7.07951172 9.14279297 7.07113281 10.08832031 7.0625 11.0625 C7.05798828 12.01189453 7.05347656 12.96128906 7.04882812 13.93945312 C7.0370011 16.29303065 7.02052025 18.64648477 7 21 C9.31 21 11.62 21 14 21 C14 39.48 14 57.96 14 77 C-41.44 77 -96.88 77 -154 77 C-154 74.69 -154 72.38 -154 70 C-149.71 70 -145.42 70 -141 70 C-140.67 67.69 -140.34 65.38 -140 63 C-138.02 63 -136.04 63 -134 63 C-134 60.69 -134 58.38 -134 56 C-131.36 56 -128.72 56 -126 56 C-125.67 53.69 -125.34 51.38 -125 49 C-123.02 49 -121.04 49 -119 49 C-119 51.31 -119 53.62 -119 56 C-121.97 56.495 -121.97 56.495 -125 57 C-125.33 58.98 -125.66 60.96 -126 63 C-128.31 63 -130.62 63 -133 63 C-132.01 66.465 -132.01 66.465 -131 70 C-127.04 70 -123.08 70 -119 70 C-119 67.69 -119 65.38 -119 63 C-116.69 63 -114.38 63 -112 63 C-112.020625 62.030625 -112.04125 61.06125 -112.0625 60.0625 C-112 57 -112 57 -111 56 C-108.81360547 55.92741054 -106.62499611 55.91626217 -104.4375 55.9375 C-102.64119141 55.95103516 -102.64119141 55.95103516 -100.80859375 55.96484375 C-99.88175781 55.97644531 -98.95492187 55.98804688 -98 56 C-98 53.69 -98 51.38 -98 49 C-95.69 49 -93.38 49 -91 49 C-91 46.69 -91 44.38 -91 42 C-93.31 42 -95.62 42 -98 42 C-98 39.69 -98 37.38 -98 35 C-95.69 35 -93.38 35 -91 35 C-91 32.69 -91 30.38 -91 28 C-88.69 28 -86.38 28 -84 28 C-84 30.31 -84 32.62 -84 35 C-81.69 35 -79.38 35 -77 35 C-77 37.31 -77 39.62 -77 42 C-78.98 42 -80.96 42 -83 42 C-83.33 44.31 -83.66 46.62 -84 49 C-79.38 49 -74.76 49 -70 49 C-70 51.31 -70 53.62 -70 56 C-72.31 56 -74.62 56 -77 56 C-77 58.31 -77 60.62 -77 63 C-72.38 63 -67.76 63 -63 63 C-63 60.69 -63 58.38 -63 56 C-61.35 56 -59.7 56 -58 56 C-57.34 53.69 -56.68 51.38 -56 49 C-53.69 49 -51.38 49 -49 49 C-49 53.62 -49 58.24 -49 63 C-46.69 63 -44.38 63 -42 63 C-42 65.31 -42 67.62 -42 70 C-39.69 70 -37.38 70 -35 70 C-35 67.69 -35 65.38 -35 63 C-36.98 63 -38.96 63 -41 63 C-41 58.38 -41 53.76 -41 49 C-36.71 49 -32.42 49 -28 49 C-28 46.69 -28 44.38 -28 42 C-29.485 42.495 -29.485 42.495 -31 43 C-33.2265625 42.9140625 -33.2265625 42.9140625 -35.625 42.625 C-36.42164063 42.53476563 -37.21828125 42.44453125 -38.0390625 42.3515625 C-40 42 -40 42 -41 41 C-41 39.02 -41 37.04 -41 35 C-36.71 35 -32.42 35 -28 35 C-28 30.71 -28 26.42 -28 22 C-29.485 22.495 -29.485 22.495 -31 23 C-33.1875 22.5625 -33.1875 22.5625 -35 22 C-35 23.98 -35 25.96 -35 28 C-36.98 28.33 -38.96 28.66 -41 29 C-41.33 30.98 -41.66 32.96 -42 35 C-44.31 35 -46.62 35 -49 35 C-49 32.69 -49 30.38 -49 28 C-46.69 28 -44.38 28 -42 28 C-42 25.69 -42 23.38 -42 21 C-46.62 21 -51.24 21 -56 21 C-56 15 -56 15 -55 14 C-53.00041636 13.95919217 -50.99954746 13.95745644 -49 14 C-49 11.69 -49 9.38 -49 7 C-46.69 7 -44.38 7 -42 7 C-41.505 12.94 -41.505 12.94 -41 19 C-39.02 19.33 -37.04 19.66 -35 20 C-35 15.71 -35 11.42 -35 7 C-32.69 7 -30.38 7 -28 7 C-28 11.62 -28 16.24 -28 21 C-25.69 21 -23.38 21 -21 21 C-21 25.62 -21 30.24 -21 35 C-18.69 35 -16.38 35 -14 35 C-13.67 36.98 -13.34 38.96 -13 41 C-10.03 41.495 -10.03 41.495 -7 42 C-6.67 39.69 -6.34 37.38 -6 35 C-4.02 35 -2.04 35 0 35 C0 37.64 0 40.28 0 43 C3.465 42.505 3.465 42.505 7 42 C7 39.69 7 37.38 7 35 C5.02 35 3.04 35 1 35 C0.80343776 32.79245484 0.61814541 30.58390461 0.4375 28.375 C0.33308594 27.14523438 0.22867188 25.91546875 0.12109375 24.6484375 C0.00808939 21.24372538 0.30954437 18.32441602 1 15 C1.99 15 2.98 15 4 15 C4.33 12.36 4.66 9.72 5 7 C3.35 7 1.7 7 0 7 C0 4.69 0 2.38 0 0 Z " fill="#F9D294" transform="translate(182,119)"/>
<path d="M0 0 C6.93 0 13.86 0 21 0 C21 2.31 21 4.62 21 7 C23.31 7 25.62 7 28 7 C28 11.62 28 16.24 28 21 C30.31 21 32.62 21 35 21 C35 23.31 35 25.62 35 28 C37.31 28 39.62 28 42 28 C42 30.31 42 32.62 42 35 C44.31 35 46.62 35 49 35 C49 37.31 49 39.62 49 42 C51.31 42 53.62 42 56 42 C56 44.31 56 46.62 56 49 C60.62 49 65.24 49 70 49 C70 51.31 70 53.62 70 56 C72.31 56 74.62 56 77 56 C77 58.31 77 60.62 77 63 C79.31 63 81.62 63 84 63 C84 65.31 84 67.62 84 70 C86.31 70 88.62 70 91 70 C91 72.31 91 74.62 91 77 C93.31 77 95.62 77 98 77 C98 79.31 98 81.62 98 84 C100.31 84 102.62 84 105 84 C105 86.31 105 88.62 105 91 C107.31 91 109.62 91 112 91 C112 93.31 112 95.62 112 98 C109.69 98 107.38 98 105 98 C105 100.31 105 102.62 105 105 C102.69 105 100.38 105 98 105 C98 107.31 98 109.62 98 112 C95.69 112 93.38 112 91 112 C91 109.69 91 107.38 91 105 C88.69 105 86.38 105 84 105 C84 98.07 84 91.14 84 84 C81.69 84 79.38 84 77 84 C77 81.69 77 79.38 77 77 C76.030625 77.020625 75.06125 77.04125 74.0625 77.0625 C71 77 71 77 70 76 C70 74.02 70 72.04 70 70 C60.76 70 51.52 70 42 70 C42 65.38 42 60.76 42 56 C39.69 56 37.38 56 35 56 C35 58.31 35 60.62 35 63 C32.69 63 30.38 63 28 63 C28 58.38 28 53.76 28 49 C25.69 49 23.38 49 21 49 C21 51.31 21 53.62 21 56 C18.69 56 16.38 56 14 56 C14 51.05 14 46.1 14 41 C11.69 41 9.38 41 7 41 C7 36.71 7 32.42 7 28 C4.69 28 2.38 28 0 28 C0 30.31 0 32.62 0 35 C-2.31 35 -4.62 35 -7 35 C-7 37.31 -7 39.62 -7 42 C-9.31 42 -11.62 42 -14 42 C-14 44.31 -14 46.62 -14 49 C-16.31 49 -18.62 49 -21 49 C-21 51.31 -21 53.62 -21 56 C-23.31 56 -25.62 56 -28 56 C-28 58.31 -28 60.62 -28 63 C-30.31 63 -32.62 63 -35 63 C-35 65.31 -35 67.62 -35 70 C-44.24 70 -53.48 70 -63 70 C-63 67.69 -63 65.38 -63 63 C-60.69 63 -58.38 63 -56 63 C-56 60.69 -56 58.38 -56 56 C-53.69 56 -51.38 56 -49 56 C-49 53.69 -49 51.38 -49 49 C-46.69 49 -44.38 49 -42 49 C-42 46.69 -42 44.38 -42 42 C-39.69 42 -37.38 42 -35 42 C-35 39.69 -35 37.38 -35 35 C-32.69 35 -30.38 35 -28 35 C-28 32.69 -28 30.38 -28 28 C-25.69 28 -23.38 28 -21 28 C-21 25.69 -21 23.38 -21 21 C-18.69 21 -16.38 21 -14 21 C-14 18.69 -14 16.38 -14 14 C-11.69 14 -9.38 14 -7 14 C-7 11.69 -7 9.38 -7 7 C-4.69 7 -2.38 7 0 7 C0 4.69 0 2.38 0 0 Z " fill="#FCFAF1" transform="translate(105,14)"/>
<path d="M0 0 C2.31 0 4.62 0 7 0 C7.226875 0.61875 7.45375 1.2375 7.6875 1.875 C9.38416443 4.6219805 11.05251711 4.86635273 14 6 C15.15839043 9.47517129 15.22801218 12.6727002 15.31640625 16.29296875 C15.33718735 16.99899734 15.35796844 17.70502594 15.37937927 18.43244934 C15.44467491 20.68403551 15.50366647 22.93573662 15.5625 25.1875 C15.60570425 26.7155066 15.64931916 28.24350164 15.69335938 29.77148438 C15.80033574 33.51420562 15.90165922 37.2570423 16 41 C16.79277344 41.11472656 17.58554688 41.22945312 18.40234375 41.34765625 C21 42 21 42 22.5625 44.4375 C23.036875 45.283125 23.51125 46.12875 24 47 C26.06700655 48.32793606 26.06700655 48.32793606 28 49 C28.3125 51.8125 28.3125 51.8125 28 55 C25.6875 56.5625 25.6875 56.5625 23 58 C22.484375 58.86625 21.96875 59.7325 21.4375 60.625 C20 63 20 63 16 64 C15.67 91.39 15.34 118.78 15 147 C13.02 147.33 11.04 147.66 9 148 C8.67 149.98 8.34 151.96 8 154 C-50.08 154 -108.16 154 -168 154 C-168.99 152.02 -169.98 150.04 -171 148 C-171.71671875 147.58105469 -172.4334375 147.16210938 -173.171875 146.73046875 C-175.48876228 144.53734682 -175.29822051 143.67567624 -175.390625 140.55078125 C-175.36406195 138.80426041 -175.31639645 137.05796044 -175.25 135.3125 C-175.23195312 134.41982422 -175.21390625 133.52714844 -175.1953125 132.60742188 C-175.14817759 130.40386496 -175.08240657 128.20247399 -175 126 C-172.69 126 -170.38 126 -168 126 C-168 130.62 -168 135.24 -168 140 C-112.56 140 -57.12 140 0 140 C0 116.9 0 93.8 0 70 C2.31 70 4.62 70 7 70 C7 67.69 7 65.38 7 63 C9.31 63 11.62 63 14 63 C14 60.69 14 58.38 14 56 C16.31 56 18.62 56 21 56 C21 53.69 21 51.38 21 49 C18.69 49 16.38 49 14 49 C14 46.69 14 44.38 14 42 C11.69 42 9.38 42 7 42 C7 39.69 7 37.38 7 35 C4.69 35 2.38 35 0 35 C0 32.69 0 30.38 0 28 C-2.31 28 -4.62 28 -7 28 C-7 25.69 -7 23.38 -7 21 C-4.69 21 -2.38 21 0 21 C0 14.07 0 7.14 0 0 Z " fill="#A0950E" transform="translate(196,56)"/>
<path d="M0 0 C1.98 0 3.96 0 6 0 C7.11303997 8.88679156 7.11508965 17.6887289 7.0625 26.625 C7.05747303 28.12109225 7.05291225 29.61718613 7.04882812 31.11328125 C7.03792185 34.74222219 7.02072382 38.37110027 7 42 C38.29088464 42.9342776 69.49718248 42.94262746 100.79055786 42.33261108 C102.05721283 42.30792755 103.3238678 42.28324402 104.62890625 42.2578125 C105.87211639 42.23337067 107.11532654 42.20892883 108.39620972 42.18374634 C119.05633607 41.98172801 129.71314651 41.90969837 140.375 41.9375 C141.4726619 41.94029465 141.4726619 41.94029465 142.59249878 41.94314575 C146.39505878 41.95448621 150.19752034 41.97292868 154 42 C154.33 43.98 154.66 45.96 155 48 C157.97 48.495 157.97 48.495 161 49 C161 51.31 161 53.62 161 56 C163.31 56 165.62 56 168 56 C168 62.93 168 69.86 168 77 C170.31 77 172.62 77 175 77 C175 83.93 175 90.86 175 98 C172.69 98 170.38 98 168 98 C167.67 91.4 167.34 84.8 167 78 C164.03 77.505 164.03 77.505 161 77 C161 72.38 161 67.76 161 63 C158.69 63 156.38 63 154 63 C154 58.38 154 53.76 154 49 C151.525 49.495 151.525 49.495 149 50 C149 51.32 149 52.64 149 54 C148.01 54.33 147.02 54.66 146 55 C145.67 53.68 145.34 52.36 145 51 C92.53 50.67 40.06 50.34 -14 50 C-14 61.22 -14 72.44 -14 84 C-11.69 84 -9.38 84 -7 84 C-6.67 92.91 -6.34 101.82 -6 111 C-3.525 110.505 -3.525 110.505 -1 110 C-0.67 106.7 -0.34 103.4 0 100 C0.33 100 0.66 100 1 100 C1 102.97 1 105.94 1 109 C2.65 109.33 4.3 109.66 6 110 C6 111.65 6 113.3 6 115 C5.505 114.01 5.505 114.01 5 113 C4.01 113 3.02 113 2 113 C1.67 121.25 1.34 129.5 1 138 C2.65 138 4.3 138 6 138 C6.33 137.34 6.66 136.68 7 136 C7 136.99 7 137.98 7 139 C4.69 139.33 2.38 139.66 0 140 C0 144.29 0 148.58 0 153 C-0.33 153 -0.66 153 -1 153 C-1.33 149.37 -1.66 145.74 -2 142 C-3.65 141.34 -5.3 140.68 -7 140 C-7.66 130.76 -8.32 121.52 -9 112 C-11.97 112.495 -11.97 112.495 -15 113 C-15 103.1 -15 93.2 -15 83 C-16.98 83 -18.96 83 -21 83 C-21 71.45 -21 59.9 -21 48 C-18.69 48 -16.38 48 -14 48 C-14.33 45.69 -14.66 43.38 -15 41 C-11.84493858 40.06380187 -9.03413498 39.8942877 -5.75 39.9375 C-4.85796875 39.94652344 -3.9659375 39.95554688 -3.046875 39.96484375 C-2.37140625 39.97644531 -1.6959375 39.98804688 -1 40 C-1.00785522 38.34230591 -1.00785522 38.34230591 -1.01586914 36.65112305 C-1.03396215 32.55298675 -1.04544778 28.45485398 -1.05493164 24.35668945 C-1.059962 22.58259487 -1.06678699 20.80850444 -1.07543945 19.03442383 C-1.08756174 16.48517839 -1.09324126 13.93598774 -1.09765625 11.38671875 C-1.10281754 10.59287277 -1.10797882 9.79902679 -1.11329651 8.98112488 C-1.11362877 5.72343714 -1.03772826 3.11318479 0 0 Z " fill="#D8DA95" transform="translate(21,42)"/>
<path d="M0 0 C2.31 0 4.62 0 7 0 C7 4.29 7 8.58 7 13 C7.99 12.67 8.98 12.34 10 12 C11.32 12.33 12.64 12.66 14 13 C14 17.95 14 22.9 14 28 C16.31 28 18.62 28 21 28 C21 25.69 21 23.38 21 21 C23.31 21 25.62 21 28 21 C28 25.62 28 30.24 28 35 C30.31 35 32.62 35 35 35 C35 32.69 35 30.38 35 28 C37.31 28 39.62 28 42 28 C42 32.62 42 37.24 42 42 C35.36701321 43.17852887 28.77135407 43.24059583 22.046875 43.3515625 C20.77314529 43.37512314 19.49941559 43.39868378 18.18708801 43.42295837 C14.75085891 43.48507425 11.31455287 43.53998003 7.87816238 43.59233475 C5.74971649 43.62500435 3.62130389 43.65941075 1.4928894 43.69406128 C-22.69054653 44.08058453 -46.82745393 43.88296967 -71 43 C-71 42.67 -71 42.34 -71 42 C-59.12 42 -47.24 42 -35 42 C-35 39.69 -35 37.38 -35 35 C-32.69 35 -30.38 35 -28 35 C-28 32.69 -28 30.38 -28 28 C-25.69 28 -23.38 28 -21 28 C-21 25.69 -21 23.38 -21 21 C-18.69 21 -16.38 21 -14 21 C-14 18.69 -14 16.38 -14 14 C-11.69 14 -9.38 14 -7 14 C-7 11.69 -7 9.38 -7 7 C-4.69 7 -2.38 7 0 7 C0 4.69 0 2.38 0 0 Z " fill="#D5E3EA" transform="translate(105,42)"/>
<path d="M0 0 C2.31 0 4.62 0 7 0 C7.3403125 0.928125 7.3403125 0.928125 7.6875 1.875 C9.38416443 4.6219805 11.05251711 4.86635273 14 6 C15.15839043 9.47517129 15.22801218 12.6727002 15.31640625 16.29296875 C15.33718735 16.99899734 15.35796844 17.70502594 15.37937927 18.43244934 C15.44467491 20.68403551 15.50366647 22.93573662 15.5625 25.1875 C15.60570425 26.7155066 15.64931916 28.24350164 15.69335938 29.77148438 C15.80033574 33.51420562 15.90165922 37.2570423 16 41 C16.79277344 41.11472656 17.58554688 41.22945312 18.40234375 41.34765625 C21 42 21 42 22.5625 44.4375 C23.036875 45.283125 23.51125 46.12875 24 47 C26.06700655 48.32793606 26.06700655 48.32793606 28 49 C28.3125 51.8125 28.3125 51.8125 28 55 C25.6875 56.5625 25.6875 56.5625 23 58 C22.484375 58.86625 21.96875 59.7325 21.4375 60.625 C20 63 20 63 16 64 C15.67 91.39 15.34 118.78 15 147 C12.69 147 10.38 147 8 147 C6.80611597 117.86097406 6.80611597 117.86097406 7 105 C4.69 105 2.38 105 0 105 C0 93.45 0 81.9 0 70 C2.31 70 4.62 70 7 70 C7 67.69 7 65.38 7 63 C9.31 63 11.62 63 14 63 C14 60.69 14 58.38 14 56 C16.31 56 18.62 56 21 56 C21 53.69 21 51.38 21 49 C18.69 49 16.38 49 14 49 C14 46.69 14 44.38 14 42 C11.69 42 9.38 42 7 42 C7 39.69 7 37.38 7 35 C4.69 35 2.38 35 0 35 C0 32.69 0 30.38 0 28 C-2.31 28 -4.62 28 -7 28 C-7 25.69 -7 23.38 -7 21 C-4.69 21 -2.38 21 0 21 C0 14.07 0 7.14 0 0 Z " fill="#747E20" transform="translate(196,56)"/>
<path d="M0 0 C2.31 0 4.62 0 7 0 C7 2.31 7 4.62 7 7 C9.31 7 11.62 7 14 7 C14 9.31 14 11.62 14 14 C16.31 14 18.62 14 21 14 C21 16.31 21 18.62 21 21 C23.31 21 25.62 21 28 21 C28 23.31 28 25.62 28 28 C30.31 28 32.62 28 35 28 C35 30.31 35 32.62 35 35 C37.31 35 39.62 35 42 35 C42 37.31 42 39.62 42 42 C44.31 42 46.62 42 49 42 C49 44.31 49 46.62 49 49 C46.69 49 44.38 49 42 49 C42 51.31 42 53.62 42 56 C39.69 56 37.38 56 35 56 C35 58.31 35 60.62 35 63 C32.69 63 30.38 63 28 63 C28 60.69 28 58.38 28 56 C25.69 56 23.38 56 21 56 C21 49.07 21 42.14 21 35 C18.69 35 16.38 35 14 35 C14 32.69 14 30.38 14 28 C13.030625 28.020625 12.06125 28.04125 11.0625 28.0625 C8 28 8 28 7 27 C7 25.02 7 23.04 7 21 C-2.24 21 -11.48 21 -21 21 C-21 16.38 -21 11.76 -21 7 C-14.07 7 -7.14 7 0 7 C0 4.69 0 2.38 0 0 Z " fill="#E8E5DD" transform="translate(168,63)"/>
<path d="M0 0 C1.4540625 0.0309375 1.4540625 0.0309375 2.9375 0.0625 C2.9375 2.3725 2.9375 4.6825 2.9375 7.0625 C9.8675 7.0625 16.7975 7.0625 23.9375 7.0625 C23.9375 9.3725 23.9375 11.6825 23.9375 14.0625 C21.6275 14.0625 19.3175 14.0625 16.9375 14.0625 C16.9375 16.3725 16.9375 18.6825 16.9375 21.0625 C19.2475 21.0625 21.5575 21.0625 23.9375 21.0625 C23.916875 20.093125 23.89625 19.12375 23.875 18.125 C23.9375 15.0625 23.9375 15.0625 24.9375 14.0625 C26.93708364 14.02169217 28.93795254 14.01995644 30.9375 14.0625 C30.9375 12.0825 30.9375 10.1025 30.9375 8.0625 C33.2475 8.0625 35.5575 8.0625 37.9375 8.0625 C37.9375 12.3525 37.9375 16.6425 37.9375 21.0625 C33.6475 21.0625 29.3575 21.0625 24.9375 21.0625 C25.4325 24.0325 25.4325 24.0325 25.9375 27.0625 C29.8975 27.3925 33.8575 27.7225 37.9375 28.0625 C37.9375 30.3725 37.9375 32.6825 37.9375 35.0625 C33.6475 35.0625 29.3575 35.0625 24.9375 35.0625 C24.9375 39.6825 24.9375 44.3025 24.9375 49.0625 C26.9175 49.0625 28.8975 49.0625 30.9375 49.0625 C30.9375 51.3725 30.9375 53.6825 30.9375 56.0625 C28.6275 56.0625 26.3175 56.0625 23.9375 56.0625 C23.9375 53.7525 23.9375 51.4425 23.9375 49.0625 C21.6275 49.0625 19.3175 49.0625 16.9375 49.0625 C16.9375 44.4425 16.9375 39.8225 16.9375 35.0625 C14.6275 35.0625 12.3175 35.0625 9.9375 35.0625 C9.999375 36.01125 10.06125 36.96 10.125 37.9375 C10.0321875 39.484375 10.0321875 39.484375 9.9375 41.0625 C6.9375 43.0625 6.9375 43.0625 4.75 42.6875 C4.151875 42.48125 3.55375 42.275 2.9375 42.0625 C2.9375 44.3725 2.9375 46.6825 2.9375 49.0625 C-1.6825 49.0625 -6.3025 49.0625 -11.0625 49.0625 C-11.0625 46.7525 -11.0625 44.4425 -11.0625 42.0625 C-8.7525 42.0625 -6.4425 42.0625 -4.0625 42.0625 C-4.0625 37.4425 -4.0625 32.8225 -4.0625 28.0625 C-0.4325 28.0625 3.1975 28.0625 6.9375 28.0625 C6.9375 27.4025 6.9375 26.7425 6.9375 26.0625 C7.5975 25.7325 8.2575 25.4025 8.9375 25.0625 C9.2675 23.7425 9.5975 22.4225 9.9375 21.0625 C5.3175 21.0625 0.6975 21.0625 -4.0625 21.0625 C-4.0625 19.0825 -4.0625 17.1025 -4.0625 15.0625 C-6.0425 15.0625 -8.0225 15.0625 -10.0625 15.0625 C-11.41689668 12.35370665 -11.12751451 10.05316732 -11.0625 7.0625 C-8.7525 7.0625 -6.4425 7.0625 -4.0625 7.0625 C-4.083125 6.093125 -4.10375 5.12375 -4.125 4.125 C-4.0425 0.0825 -4.0425 0.0825 0 0 Z " fill="#FEEC9E" transform="translate(116.0625,132.9375)"/>
<path d="M0 0 C57.75 0 115.5 0 175 0 C175 2.31 175 4.62 175 7 C117.25 7 59.5 7 0 7 C0 4.69 0 2.38 0 0 Z " fill="#3A3608" transform="translate(28,203)"/>
<path d="M0 0 C52.47 0 104.94 0 159 0 C159.33 1.65 159.66 3.3 160 5 C157.28587732 6.35706134 155.14946495 6.13719012 152.10960388 6.15148926 C150.2270842 6.16400475 150.2270842 6.16400475 148.30653381 6.17677307 C146.90805079 6.18108275 145.5095675 6.18530653 144.11108398 6.18945312 C142.64444744 6.1973928 141.17781326 6.20578053 139.71118164 6.21458435 C136.54909893 6.23266041 133.3870215 6.24766906 130.22491264 6.26036072 C125.2299095 6.28054585 120.23496517 6.30820204 115.24000549 6.33703613 C103.73644113 6.40229242 92.23283321 6.45770569 80.72921753 6.51302338 C70.18567301 6.56381924 59.64214985 6.61666216 49.09865814 6.67754889 C44.12804491 6.70596688 39.1574388 6.72953772 34.18678463 6.74947357 C31.10128168 6.76282119 28.01581164 6.78023541 24.930336 6.79878426 C23.49397421 6.80656722 22.05760194 6.81262493 20.62122536 6.81687737 C18.66860184 6.82288637 16.71600189 6.83550018 14.76341248 6.84851074 C13.12052577 6.85624134 13.12052577 6.85624134 11.44444942 6.86412811 C9.05318681 6.72455524 9.05318681 6.72455524 8 8 C7.84193469 9.92478813 7.748865 11.8549921 7.68359375 13.78515625 C7.64169922 14.95498047 7.59980469 16.12480469 7.55664062 17.33007812 C7.51732422 18.56177734 7.47800781 19.79347656 7.4375 21.0625 C7.37272461 22.91584961 7.37272461 22.91584961 7.30664062 24.80664062 C7.20015802 27.87097335 7.09814576 30.93539073 7 34 C4.69 34 2.38 34 0 34 C0 22.78 0 11.56 0 0 Z " fill="#FEFCDC" transform="translate(7,92)"/>
<path d="M0 0 C1.98 0 3.96 0 6 0 C7.11303997 8.88679156 7.11508965 17.6887289 7.0625 26.625 C7.05747303 28.12109225 7.05291225 29.61718613 7.04882812 31.11328125 C7.03792185 34.74222219 7.02072382 38.37110027 7 42 C40.54149583 42.99893881 74.07145248 43.08895918 107.625 43.0625 C109.26478758 43.06121597 109.26478758 43.06121597 110.93770218 43.05990601 C124.62515071 43.04840229 138.312576 43.02816553 152 43 C152.33 44.65 152.66 46.3 153 48 C137.70834245 48.03069552 122.41668418 48.05101037 107.125 48.0625 C105.99377213 48.06335602 104.86254425 48.06421204 103.69703674 48.06509399 C73.7110083 48.0851359 43.73212479 48.00996259 13.75 47.5 C13.04638588 47.48804218 12.34277176 47.47608437 11.617836 47.46376419 C3.41161559 47.32309653 -4.79433206 47.16997787 -13 47 C-12.67 45.68 -12.34 44.36 -12 43 C-8.37 43 -4.74 43 -1 43 C-0.67 28.81 -0.34 14.62 0 0 Z " fill="#99970C" transform="translate(21,42)"/>
<path d="M0 0 C11.55 0 23.1 0 35 0 C35 2.31 35 4.62 35 7 C32.69 7 30.38 7 28 7 C28 9.31 28 11.62 28 14 C25.69 14 23.38 14 21 14 C21 16.31 21 18.62 21 21 C18.69 21 16.38 21 14 21 C14 23.31 14 25.62 14 28 C11.69 28 9.38 28 7 28 C7 30.31 7 32.62 7 35 C4.69 35 2.38 35 0 35 C0 39.62 0 44.24 0 49 C-2.31 49 -4.62 49 -7 49 C-7.495 28.21 -7.495 28.21 -8 7 C-9.98 7 -11.96 7 -14 7 C-14 6.67 -14 6.34 -14 6 C-11.69 5.34 -9.38 4.68 -7 4 C-7 4.99 -7 5.98 -7 7 C-4.69 7 -2.38 7 0 7 C0 4.69 0 2.38 0 0 Z " fill="#FAF892" transform="translate(35,35)"/>
<path d="M0 0 C6.81761894 -0.0252689 13.63522589 -0.04283244 20.45288086 -0.05493164 C22.77417451 -0.05997333 25.09546497 -0.06680651 27.41674805 -0.07543945 C30.74528795 -0.08751225 34.07378602 -0.09322979 37.40234375 -0.09765625 C38.44712387 -0.10281754 39.49190399 -0.10797882 40.56834412 -0.11329651 C41.52926468 -0.11337204 42.49018524 -0.11344757 43.48022461 -0.11352539 C44.33071884 -0.115746 45.18121307 -0.11796661 46.05747986 -0.12025452 C48 0 48 0 49 1 C49.07258946 3.18639453 49.08373783 5.37500389 49.0625 7.5625 C49.05347656 8.76003906 49.04445312 9.95757812 49.03515625 11.19140625 C49.02355469 12.11824219 49.01195312 13.04507813 49 14 C46.69 14 44.38 14 42 14 C42 16.31 42 18.62 42 21 C39.69 21 37.38 21 35 21 C35 23.31 35 25.62 35 28 C32.69 28 30.38 28 28 28 C28 30.31 28 32.62 28 35 C25.69 35 23.38 35 21 35 C21 37.31 21 39.62 21 42 C18.69 42 16.38 42 14 42 C14 44.31 14 46.62 14 49 C11.69 49 9.38 49 7 49 C7 51.31 7 53.62 7 56 C4.69 56 2.38 56 0 56 C0 51.38 0 46.76 0 42 C2.31 42 4.62 42 7 42 C7 39.69 7 37.38 7 35 C9.31 35 11.62 35 14 35 C14 32.69 14 30.38 14 28 C16.31 28 18.62 28 21 28 C21 25.69 21 23.38 21 21 C23.31 21 25.62 21 28 21 C28 18.69 28 16.38 28 14 C30.31 14 32.62 14 35 14 C35 11.69 35 9.38 35 7 C23.45 7 11.9 7 0 7 C0 9.31 0 11.62 0 14 C-2.31 14 -4.62 14 -7 14 C-7 11.69 -7 9.38 -7 7 C-5.5459375 6.38125 -5.5459375 6.38125 -4.0625 5.75 C-0.86188547 4.37507457 -0.86188547 4.37507457 -0.30859375 1.890625 C-0.20675781 1.26671875 -0.10492188 0.6428125 0 0 Z " fill="#8E8D55" transform="translate(35,28)"/>
<path d="M0 0 C1.98 0 3.96 0 6 0 C6 1.98 6 3.96 6 6 C7.46808105 5.9685791 7.46808105 5.9685791 8.96582031 5.93652344 C12.60352904 5.86402037 16.24117416 5.81816367 19.87939453 5.78027344 C21.45274604 5.7601812 23.02602308 5.73290201 24.59912109 5.69824219 C26.86314272 5.64961506 29.12617573 5.62700865 31.390625 5.609375 C32.09181458 5.58872986 32.79300415 5.56808472 33.51544189 5.54681396 C36.96384985 5.54523632 38.70367794 5.77264441 41.47558594 7.89941406 C43 10 43 10 43 12 C44.32 12.66 45.64 13.32 47 14 C45.02 14 43.04 14 41 14 C41 20.93 41 27.86 41 35 C36.38 35 31.76 35 27 35 C27 32.69 27 30.38 27 28 C24.69 28 22.38 28 20 28 C20 25.69 20 23.38 20 21 C15.38 21 10.76 21 6 21 C6 16.38 6 11.76 6 7 C4.02 7 2.04 7 0 7 C0 4.69 0 2.38 0 0 Z " fill="#C5CB63" transform="translate(155,42)"/>
<path d="M0 0 C2.31 0 4.62 0 7 0 C7 27.72 7 55.44 7 84 C5.02 84 3.04 84 1 84 C-0.19388403 54.86097406 -0.19388403 54.86097406 0 42 C-2.31 42 -4.62 42 -7 42 C-7 30.45 -7 18.9 -7 7 C-4.69 7 -2.38 7 0 7 C0 4.69 0 2.38 0 0 Z " fill="#343406" transform="translate(203,119)"/>
<path d="M0 0 C0.33 0 0.66 0 1 0 C1 13.53 1 27.06 1 41 C-2.96 41 -6.92 41 -11 41 C-11.33 41.99 -11.66 42.98 -12 44 C-11.39520813 43.99777939 -10.79041626 43.99555878 -10.16729736 43.99327087 C-1.86154799 43.96450417 6.4442091 43.94760484 14.75 43.9375 C15.44829674 43.93664398 16.14659348 43.93578796 16.86605072 43.93490601 C47.28766241 43.90223078 77.70530514 44.18061047 108.125 44.5 C109.26428452 44.51195782 110.40356903 44.52391563 111.57737732 44.53623581 C125.71831485 44.68517739 139.85918503 44.83985749 154 45 C153.67 43.68 153.34 42.36 153 41 C139.8 41 126.6 41 113 41 C113 40.67 113 40.34 113 40 C118.16720401 39.14324615 123.10780622 38.86532419 128.33984375 38.90234375 C129.49027916 38.90446617 129.49027916 38.90446617 130.66395569 38.90663147 C133.0885119 38.91218234 135.51297219 38.92472537 137.9375 38.9375 C139.59179553 38.94252136 141.24609253 38.94708315 142.90039062 38.95117188 C146.93363012 38.96213562 150.96679886 38.97936576 155 39 C155.33 40.98 155.66 42.96 156 45 C158.97 45.495 158.97 45.495 162 46 C162 48.31 162 50.62 162 53 C164.31 53 166.62 53 169 53 C169 59.93 169 66.86 169 74 C171.31 74 173.62 74 176 74 C176 80.93 176 87.86 176 95 C173.69 95 171.38 95 169 95 C168.67 88.4 168.34 81.8 168 75 C165.03 74.505 165.03 74.505 162 74 C162 69.38 162 64.76 162 60 C159.69 60 157.38 60 155 60 C155 55.38 155 50.76 155 46 C99.56 46 44.12 46 -13 46 C-13.33 43.36 -13.66 40.72 -14 38 C-10 37 -10 37 0 37 C0 24.79 0 12.58 0 0 Z " fill="#9A9C36" transform="translate(20,45)"/>
<path d="M0 0 C1.65 0 3.3 0 5 0 C5 2.97 5 5.94 5 9 C3.68 8.67 2.36 8.34 1 8 C1 14.6 1 21.2 1 28 C2.98 28 4.96 28 7 28 C7 30.31 7 32.62 7 35 C3.535 35.495 3.535 35.495 0 36 C0 33.36 0 30.72 0 28 C-1.98 28 -3.96 28 -6 28 C-6.33 30.31 -6.66 32.62 -7 35 C-8.99954746 35.04254356 -11.00041636 35.04080783 -13 35 C-14 34 -14 34 -14.0625 30.9375 C-14.041875 29.968125 -14.02125 28.99875 -14 28 C-16.31 28 -18.62 28 -21 28 C-21 21.07 -21 14.14 -21 7 C-18.69 7 -16.38 7 -14 7 C-13 8 -13 8 -12.9375 10.5625 C-12.958125 11.366875 -12.97875 12.17125 -13 13 C-11.02 13 -9.04 13 -7 13 C-7 11.02 -7 9.04 -7 7 C-4.69 7 -2.38 7 0 7 C0 4.69 0 2.38 0 0 Z " fill="#FBE69A" transform="translate(182,126)"/>
<path d="M0 0 C2.31 0 4.62 0 7 0 C7 4.29 7 8.58 7 13 C2.71 13 -1.58 13 -6 13 C-5.67 14.98 -5.34 16.96 -5 19 C-1.04 19.33 2.92 19.66 7 20 C7 22.31 7 24.62 7 27 C2.71 27 -1.58 27 -6 27 C-6 31.62 -6 36.24 -6 41 C-4.02 41 -2.04 41 0 41 C0 43.31 0 45.62 0 48 C-2.31 48 -4.62 48 -7 48 C-7 45.69 -7 43.38 -7 41 C-9.31 41 -11.62 41 -14 41 C-14 36.38 -14 31.76 -14 27 C-16.31 27 -18.62 27 -21 27 C-21 24.69 -21 22.38 -21 20 C-18.69 20 -16.38 20 -14 20 C-14 17.69 -14 15.38 -14 13 C-11.69 13 -9.38 13 -7 13 C-7.020625 12.030625 -7.04125 11.06125 -7.0625 10.0625 C-7 7 -7 7 -6 6 C-4.00041636 5.95919217 -1.99954746 5.95745644 0 6 C0 4.02 0 2.04 0 0 Z " fill="#FDF49E" transform="translate(147,141)"/>
<path d="M0 0 C2.31 0 4.62 0 7 0 C7.495 6.435 7.495 6.435 8 13 C9.98 13.33 11.96 13.66 14 14 C14 11.69 14 9.38 14 7 C16.31 7 18.62 7 21 7 C21 9.31 21 11.62 21 14 C25.62 14 30.24 14 35 14 C35 11.69 35 9.38 35 7 C37.31 7 39.62 7 42 7 C42 9.31 42 11.62 42 14 C46.62 14 51.24 14 56 14 C56 11.69 56 9.38 56 7 C58.31 7 60.62 7 63 7 C63 4.69 63 2.38 63 0 C65.31 0 67.62 0 70 0 C70 4.62 70 9.24 70 14 C63.36701321 15.17852887 56.77135407 15.24059583 50.046875 15.3515625 C48.77314529 15.37512314 47.49941559 15.39868378 46.18708801 15.42295837 C42.75085891 15.48507425 39.31455287 15.53998003 35.87816238 15.59233475 C33.74971649 15.62500435 31.62130389 15.65941075 29.4928894 15.69406128 C5.30945347 16.08058453 -18.82745393 15.88296967 -43 15 C-43 14.67 -43 14.34 -43 14 C-31.12 14 -19.24 14 -7 14 C-7 11.69 -7 9.38 -7 7 C-4.69 7 -2.38 7 0 7 C0 4.69 0 2.38 0 0 Z " fill="#8F9535" transform="translate(77,70)"/>
<path d="M0 0 C2.31 0 4.62 0 7 0 C8.31141684 13.98064029 8.09936099 27.97175681 8 42 C8.99 42.33 9.98 42.66 11 43 C10.34 43 9.68 43 9 43 C8.67 44.98 8.34 46.96 8 49 C7.67 49 7.34 49 7 49 C7 46.69 7 44.38 7 42 C-50.75 42 -108.5 42 -168 42 C-168.33 43.32 -168.66 44.64 -169 46 C-170.65 44.35 -172.3 42.7 -174 41 C-173.67 40.34 -173.34 39.68 -173 39 C-84.395 39.495 -84.395 39.495 6 40 C6 27.46 6 14.92 6 2 C4.35 2.33 2.7 2.66 1 3 C1 13.56 1 24.12 1 35 C0.67 35 0.34 35 0 35 C0 23.45 0 11.9 0 0 Z " fill="#999512" transform="translate(196,161)"/>
<path d="M0 0 C0 2.31 0 4.62 0 7 C2.31 7 4.62 7 7 7 C7 9.31 7 11.62 7 14 C9.31 14 11.62 14 14 14 C14 16.31 14 18.62 14 21 C11.69 21 9.38 21 7 21 C7 23.31 7 25.62 7 28 C4.69 28 2.38 28 0 28 C0 30.31 0 32.62 0 35 C-2.31 35 -4.62 35 -7 35 C-7 25.76 -7 16.52 -7 7 C-8.98 7 -10.96 7 -13 7 C-13 5.02 -13 3.04 -13 1 C-8.59085217 -0.10228696 -4.51617599 -0.07654536 0 0 Z " fill="#E3E5DA" transform="translate(203,91)"/>
<path d="M0 0 C21.85273111 0.0853663 43.70537661 0.17891392 65.55800343 0.28752708 C75.70409951 0.33769136 85.85018736 0.38413379 95.99633789 0.421875 C104.83766891 0.45477197 113.67893672 0.49459039 122.52019805 0.54279006 C127.20342762 0.56807792 131.88661514 0.5898524 136.56989479 0.60334396 C140.97508242 0.61614362 145.38012599 0.63817519 149.78523445 0.66738319 C151.40457861 0.67647542 153.02394598 0.68215302 154.64331436 0.68421364 C156.84947672 0.68752463 159.05522777 0.70296989 161.26130676 0.7215271 C162.49743115 0.72705786 163.73355555 0.73258862 165.00713825 0.73828697 C168 1 168 1 171 3 C170.67 3.99 170.34 4.98 170 6 C169.01 6.33 168.02 6.66 167 7 C166.67 5.68 166.34 4.36 166 3 C113.53 2.67 61.06 2.34 7 2 C7 22.79 7 43.58 7 65 C6.67 65 6.34 65 6 65 C6 55.1 6 45.2 6 35 C4.02 35 2.04 35 0 35 C0 23.45 0 11.9 0 0 Z " fill="#F0F0AB" transform="translate(0,90)"/>
<path d="M0 0 C6.93 0 13.86 0 21 0 C21 2.31 21 4.62 21 7 C18.69 7 16.38 7 14 7 C14 9.31 14 11.62 14 14 C11.69 14 9.38 14 7 14 C7 16.31 7 18.62 7 21 C4.69 21 2.38 21 0 21 C0 23.31 0 25.62 0 28 C-2.31 28 -4.62 28 -7 28 C-7 21.07 -7 14.14 -7 7 C-4.69 7 -2.38 7 0 7 C0 4.69 0 2.38 0 0 Z " fill="#CCCB63" transform="translate(42,42)"/>
<path d="M0 0 C2.31 0 4.62 0 7 0 C7 2.31 7 4.62 7 7 C9.31 7 11.62 7 14 7 C14.04241723 9.33294775 14.04092937 11.66702567 14 14 C13 15 13 15 10.4375 15.0625 C9.633125 15.041875 8.82875 15.02125 8 15 C8 16.98 8 18.96 8 21 C9.98 21 11.96 21 14 21 C14 27.93 14 34.86 14 42 C11.69 42 9.38 42 7 42 C7 35.07 7 28.14 7 21 C4.69 21 2.38 21 0 21 C0 18.69 0 16.38 0 14 C-1.4540625 14.0309375 -1.4540625 14.0309375 -2.9375 14.0625 C-6 14 -6 14 -7 13 C-7.04080783 11.00041636 -7.04254356 8.99954746 -7 7 C-4.69 7 -2.38 7 0 7 C0 4.69 0 2.38 0 0 Z " fill="#E2E2D5" transform="translate(182,77)"/>
<path d="M0 0 C6.81761894 -0.0252689 13.63522589 -0.04283244 20.45288086 -0.05493164 C22.77417451 -0.05997333 25.09546497 -0.06680651 27.41674805 -0.07543945 C30.74528795 -0.08751225 34.07378602 -0.09322979 37.40234375 -0.09765625 C38.44712387 -0.10281754 39.49190399 -0.10797882 40.56834412 -0.11329651 C41.52926468 -0.11337204 42.49018524 -0.11344757 43.48022461 -0.11352539 C44.33071884 -0.115746 45.18121307 -0.11796661 46.05747986 -0.12025452 C48 0 48 0 49 1 C49 2.98 49 4.96 49 7 C32.83 7 16.66 7 0 7 C0 9.31 0 11.62 0 14 C-2.31 14 -4.62 14 -7 14 C-7 11.69 -7 9.38 -7 7 C-5.5459375 6.38125 -5.5459375 6.38125 -4.0625 5.75 C-0.86188547 4.37507457 -0.86188547 4.37507457 -0.30859375 1.890625 C-0.20675781 1.26671875 -0.10492188 0.6428125 0 0 Z " fill="#7C7E06" transform="translate(35,28)"/>
<path d="M0 0 C1.98 0 3.96 0 6 0 C6.33 1.98 6.66 3.96 7 6 C13.77924694 7.18462612 20.56946946 7.33394034 27.4375 7.5625 C28.64599609 7.60568359 29.85449219 7.64886719 31.09960938 7.69335938 C34.06628999 7.79889347 37.03313115 7.89989746 40 8 C40 12.29 40 16.58 40 21 C38.02 21 36.04 21 34 21 C34 18.69 34 16.38 34 14 C29.38 14 24.76 14 20 14 C20 16.31 20 18.62 20 21 C15.38 21 10.76 21 6 21 C6 16.38 6 11.76 6 7 C4.02 7 2.04 7 0 7 C0 4.69 0 2.38 0 0 Z " fill="#7D8007" transform="translate(155,42)"/>
<path d="M0 0 C0 1.65 0 3.3 0 5 C-56.1 5 -112.2 5 -170 5 C-169.67 4.34 -169.34 3.68 -169 3 C-115.87 3 -62.74 3 -8 3 C-8 2.34 -8 1.68 -8 1 C-5.29120665 -0.35439668 -2.99066732 -0.06501451 0 0 Z " fill="#31310B" transform="translate(203,204)"/>
<path d="M0 0 C4.62 0 9.24 0 14 0 C14 6.93 14 13.86 14 21 C16.31 21 18.62 21 21 21 C21 27.93 21 34.86 21 42 C18.69 42 16.38 42 14 42 C13.67 35.4 13.34 28.8 13 22 C11.02 21.67 9.04 21.34 7 21 C7 16.38 7 11.76 7 7 C4.69 7 2.38 7 0 7 C0 4.69 0 2.38 0 0 Z " fill="#A4A131" transform="translate(175,98)"/>
<path d="M0 0 C0.33 0.66 0.66 1.32 1 2 C1.804375 2.268125 2.60875 2.53625 3.4375 2.8125 C6 4 6 4 6.9375 6.5 C7.80354352 9.3445866 7.80354352 9.3445866 11.125 10.3125 C12.07375 10.539375 13.0225 10.76625 14 11 C14.33 12.98 14.66 14.96 15 17 C16.32 17.33 17.64 17.66 19 18 C17.68 18 16.36 18 15 18 C15 20.31 15 22.62 15 25 C16.98 25 18.96 25 21 25 C21 27.31 21 29.62 21 32 C18.69 32 16.38 32 14 32 C14 29.69 14 27.38 14 25 C11.69 25 9.38 25 7 25 C7 22.69 7 20.38 7 18 C4.69 18 2.38 18 0 18 C0 15.69 0 13.38 0 11 C-2.31 11 -4.62 11 -7 11 C-7 8.69 -7 6.38 -7 4 C-4.69 4 -2.38 4 0 4 C0 2.68 0 1.36 0 0 Z " fill="#BEBDBA" transform="translate(140,24)"/>
<path d="M0 0 C12.22153256 -0.02313273 24.44305994 -0.04091986 36.66460991 -0.05181217 C42.33907721 -0.05703895 48.01352958 -0.06413291 53.68798828 -0.07543945 C59.16037265 -0.08627557 64.63274261 -0.09227838 70.10513687 -0.09487724 C72.19680127 -0.09673018 74.28846484 -0.10034829 76.38012314 -0.10573006 C79.30144731 -0.11295007 82.22271136 -0.11399053 85.14404297 -0.11352539 C86.01582184 -0.11712067 86.88760071 -0.12071594 87.78579712 -0.12442017 C93.77189568 -0.11405216 93.77189568 -0.11405216 96 1 C96 1.99 96 2.98 96 4 C94.84155075 3.99777939 93.6831015 3.99555878 92.48954773 3.99327087 C81.58581996 3.97302156 70.68209598 3.9580192 59.77835369 3.94818783 C54.1722962 3.94296357 48.56625385 3.93587416 42.96020508 3.92456055 C37.55265465 3.9137155 32.14511882 3.90771971 26.73755836 3.90512276 C24.67184024 3.90327144 22.60612293 3.89965641 20.540411 3.89426994 C17.65281812 3.8870381 14.76528598 3.88600997 11.87768555 3.88647461 C11.01885269 3.88287933 10.16001984 3.87928406 9.27516174 3.87557983 C5.92951361 3.8814264 3.19649589 3.93450137 0 5 C0 3.35 0 1.7 0 0 Z " fill="#FCFBF0" transform="translate(11,93)"/>
<path d="M0 0 C24.75 0 49.5 0 75 0 C75.495 2.475 75.495 2.475 76 5 C50.59 4.67 25.18 4.34 -1 4 C-0.67 2.68 -0.34 1.36 0 0 Z " fill="#9A9805" transform="translate(98,85)"/>
<path d="M0 0 C1.99954746 -0.04254356 4.00041636 -0.04080783 6 0 C7 1 7 1 7.11352539 2.94946289 C7.10828857 3.7821167 7.10305176 4.61477051 7.09765625 5.47265625 C7.09443359 6.37177734 7.09121094 7.27089844 7.08789062 8.19726562 C7.07951172 9.14279297 7.07113281 10.08832031 7.0625 11.0625 C7.05798828 12.01189453 7.05347656 12.96128906 7.04882812 13.93945312 C7.0370011 16.29303065 7.02052025 18.64648477 7 21 C9.31 21 11.62 21 14 21 C14.1921227 26.47549707 13.99186369 30.86308839 12 36 C10.515 36.495 10.515 36.495 9 37 C9 37.99 9 38.98 9 40 C8.34 40 7.68 40 7 40 C7 38.35 7 36.7 7 35 C5.02 35 3.04 35 1 35 C0.80343776 32.79245484 0.61814541 30.58390461 0.4375 28.375 C0.33308594 27.14523438 0.22867188 25.91546875 0.12109375 24.6484375 C0.00808939 21.24372538 0.30954437 18.32441602 1 15 C1.99 15 2.98 15 4 15 C4.33 12.36 4.66 9.72 5 7 C3.35 7 1.7 7 0 7 C0 4.69 0 2.38 0 0 Z " fill="#F6CF91" transform="translate(182,119)"/>
<path d="M0 0 C0.33 0 0.66 0 1 0 C1.33 10.56 1.66 21.12 2 32 C3.65 32.33 5.3 32.66 7 33 C8.04892238 34.63631892 9.04906703 36.30485863 10 38 C12.06700655 39.32793606 12.06700655 39.32793606 14 40 C14.3125 42.8125 14.3125 42.8125 14 46 C11.6875 47.5625 11.6875 47.5625 9 49 C8.484375 49.86625 7.96875 50.7325 7.4375 51.625 C6 54 6 54 2 55 C1.67 82.39 1.34 109.78 1 138 C0.67 138 0.34 138 0 138 C0 107.97 0 77.94 0 47 C2.31 47 4.62 47 7 47 C7 44.69 7 42.38 7 40 C4.69 40 2.38 40 0 40 C0 26.8 0 13.6 0 0 Z " fill="#8D8E85" transform="translate(210,65)"/>
<path d="M0 0 C1.98 0 3.96 0 6 0 C6 13.86 6 27.72 6 42 C4.02 42 2.04 42 0 42 C0 28.14 0 14.28 0 0 Z " fill="#7C7D08" transform="translate(21,42)"/>
<path d="M0 0 C2.31 0 4.62 0 7 0 C7 6.93 7 13.86 7 21 C2.38 21 -2.24 21 -7 21 C-7 16.38 -7 11.76 -7 7 C-4.69 7 -2.38 7 0 7 C0 4.69 0 2.38 0 0 Z " fill="#B5C4C8" transform="translate(126,63)"/>
<path d="M0 0 C2.31 0 4.62 0 7 0 C7 4.62 7 9.24 7 14 C4.69 14 2.38 14 0 14 C0 16.31 0 18.62 0 21 C-4.62 21 -9.24 21 -14 21 C-14 18.69 -14 16.38 -14 14 C-11.69 14 -9.38 14 -7 14 C-7 11.69 -7 9.38 -7 7 C-4.69 7 -2.38 7 0 7 C0 4.69 0 2.38 0 0 Z " fill="#B9C0C5" transform="translate(112,63)"/>
<path d="M0 0 C2.31 0 4.62 0 7 0 C6.8125 2.875 6.8125 2.875 6 6 C4.35 6.66 2.7 7.32 1 8 C0.67 12.29 0.34 16.58 0 21 C-2.31 21 -4.62 21 -7 21 C-7 23.31 -7 25.62 -7 28 C-9.31 28 -11.62 28 -14 28 C-14 23.38 -14 18.76 -14 14 C-11.69 14 -9.38 14 -7 14 C-7 11.69 -7 9.38 -7 7 C-4.69 7 -2.38 7 0 7 C0 4.69 0 2.38 0 0 Z " fill="#96981D" transform="translate(49,56)"/>
<path d="M0 0 C0.33 0 0.66 0 1 0 C1 8.91 1 17.82 1 27 C1.99 27.33 2.98 27.66 4 28 C3.34 28 2.68 28 2 28 C1.67 29.98 1.34 31.96 1 34 C0.67 34 0.34 34 0 34 C0 31.69 0 29.38 0 27 C-57.75 27 -115.5 27 -175 27 C-175.33 28.32 -175.66 29.64 -176 31 C-177.65 29.35 -179.3 27.7 -181 26 C-180.67 25.34 -180.34 24.68 -180 24 C-178.99782157 24.16173675 -177.99564314 24.32347349 -176.96309566 24.49011135 C-173.12233233 24.98426082 -169.46058727 25.13854458 -165.59046936 25.15821838 C-164.87803383 25.16315636 -164.1655983 25.16809434 -163.43157381 25.17318195 C-161.06253901 25.18844665 -158.69353108 25.19688738 -156.32446289 25.20532227 C-154.61901619 25.21490948 -152.91357182 25.22492005 -151.20812988 25.23532104 C-146.59093804 25.26228481 -141.97373607 25.28334039 -137.35650945 25.30332303 C-132.52650829 25.32523537 -127.69653806 25.35259832 -122.86656189 25.37937927 C-113.7259508 25.42923533 -104.58532247 25.47420038 -95.44467777 25.51740164 C-85.03598688 25.56683467 -74.62732703 25.62173026 -64.2186662 25.67708123 C-42.8124729 25.79079245 -21.40624947 25.89746127 0 26 C0 17.42 0 8.84 0 0 Z " fill="#8C892D" transform="translate(203,176)"/>
<path d="M0 0 C0.99 0.495 0.99 0.495 2 1 C2 11.89 2 22.78 2 34 C-53.44 34 -108.88 34 -166 34 C-166 33.67 -166 33.34 -166 33 C-111.22 33 -56.44 33 0 33 C0.33 24.75 0.66 16.5 1 8 C-1.475 8.99 -1.475 8.99 -4 10 C-3.43454163 6.04179141 -2.19097652 3.3340947 0 0 Z " fill="#EFD383" transform="translate(194,162)"/>
<path d="M0 0 C1.65 0 3.3 0 5 0 C5 11.55 5 23.1 5 35 C2.69 35 0.38 35 -2 35 C-2.11402498 26.52414306 -1.98577613 18.09132581 -1.5625 9.625 C-1.52326416 8.78670654 -1.48402832 7.94841309 -1.44360352 7.0847168 C-1.12197734 1.12197734 -1.12197734 1.12197734 0 0 Z " fill="#0E312E" transform="translate(205,63)"/>
<path d="M0 0 C17.82 0 35.64 0 54 0 C54 0.99 54 1.98 54 3 C51.49450555 4.25274723 49.80264368 4.12029624 46.99951172 4.11352539 C45.43811966 4.11341209 45.43811966 4.11341209 43.84518433 4.11329651 C42.71807037 4.10813522 41.59095642 4.10297394 40.4296875 4.09765625 C39.27832306 4.0962413 38.12695862 4.09482635 36.94070435 4.09336853 C33.25211014 4.08775716 29.56357595 4.0752027 25.875 4.0625 C23.37890712 4.05748647 20.8828133 4.05292331 18.38671875 4.04882812 C12.25779191 4.03778403 6.12890024 4.0210348 0 4 C0 2.68 0 1.36 0 0 Z " fill="#FBF9EC" transform="translate(111,93)"/>
<path d="M0 0 C4.48398784 -0.09903473 8.96739292 -0.17154483 13.45214844 -0.21972656 C14.97700085 -0.23981599 16.50177648 -0.26709316 18.02636719 -0.30175781 C20.22089598 -0.35039796 22.41440469 -0.37299396 24.609375 -0.390625 C25.92905273 -0.41157227 27.24873047 -0.43251953 28.60839844 -0.45410156 C32 0 32 0 34.46191406 1.89941406 C36 4 36 4 36 6 C37.32 6.66 38.64 7.32 40 8 C38.02 8 36.04 8 34 8 C34 14.93 34 21.86 34 29 C31.69 29 29.38 29 27 29 C27 26.69 27 24.38 27 22 C25.02 22 23.04 22 21 22 C21 20.68 21 19.36 21 18 C22.65 18 24.3 18 26 18 C26 17.34 26 16.68 26 16 C28.31 16 30.62 16 33 16 C33 11.38 33 6.76 33 2 C31.20433594 2.01160156 29.40867188 2.02320313 27.55859375 2.03515625 C25.18489688 2.04453845 22.81119887 2.05363819 20.4375 2.0625 C19.25607422 2.07087891 18.07464844 2.07925781 16.85742188 2.08789062 C11.13136928 2.10392999 5.63605518 2.0510705 0 1 C0 0.67 0 0.34 0 0 Z " fill="#CACF72" transform="translate(162,48)"/>
<path d="M0 0 C1.98 0 3.96 0 6 0 C6 11.22 6 22.44 6 34 C4.02 34 2.04 34 0 34 C0 22.78 0 11.56 0 0 Z " fill="#929515" transform="translate(0,91)"/>
<path d="M0 0 C0.33 0 0.66 0 1 0 C1 2.31 1 4.62 1 7 C9.91 7 18.82 7 28 7 C28 9.31 28 11.62 28 14 C18.76 14 9.52 14 0 14 C0 9.38 0 4.76 0 0 Z " fill="#C4C0B6" transform="translate(147,70)"/>
<path d="M0 0 C4.62 0 9.24 0 14 0 C14 1.98 14 3.96 14 6 C11 8 11 8 8.8125 7.625 C8.214375 7.41875 7.61625 7.2125 7 7 C7 9.31 7 11.62 7 14 C2.38 14 -2.24 14 -7 14 C-7 11.69 -7 9.38 -7 7 C-4.69 7 -2.38 7 0 7 C0 4.69 0 2.38 0 0 Z " fill="#FEF7A1" transform="translate(112,168)"/>
<path d="M0 0 C9.24 0 18.48 0 28 0 C28 2.31 28 4.62 28 7 C18.76 7 9.52 7 0 7 C0 4.69 0 2.38 0 0 Z " fill="#BFC1B3" transform="translate(42,77)"/>
<path d="M0 0 C2.31 0 4.62 0 7 0 C7.02886537 4.31248609 7.04675255 8.62494762 7.0625 12.9375 C7.07087891 14.16919922 7.07925781 15.40089844 7.08789062 16.66992188 C7.09111328 17.83974609 7.09433594 19.00957031 7.09765625 20.21484375 C7.10289307 21.29886475 7.10812988 22.38288574 7.11352539 23.49975586 C7 26 7 26 6 27 C4.33382885 27.04063832 2.66611905 27.042721 1 27 C-0.0394775 23.8815675 -0.11494838 21.72524414 -0.09765625 18.45703125 C-0.09443359 17.38388672 -0.09121094 16.31074219 -0.08789062 15.20507812 C-0.07951172 14.08552734 -0.07113281 12.96597656 -0.0625 11.8125 C-0.05798828 10.68134766 -0.05347656 9.55019531 -0.04882812 8.38476562 C-0.03703498 5.58979073 -0.0205765 2.7949218 0 0 Z " fill="#FEFCDB" transform="translate(14,126)"/>
<path d="M0 0 C8.58 0 17.16 0 26 0 C26 1.65 26 3.3 26 5 C26.33 5.33 26.66 5.66 27 6 C27 4.02 27 2.04 27 0 C27.33 0 27.66 0 28 0 C28 2.31 28 4.62 28 7 C18.76 7 9.52 7 0 7 C0 4.69 0 2.38 0 0 Z " fill="#E2E5D9" transform="translate(49,70)"/>
<path d="M0 0 C1.98 0 3.96 0 6 0 C6 9.24 6 18.48 6 28 C4.02 28 2.04 28 0 28 C0 18.76 0 9.52 0 0 Z " fill="#939707" transform="translate(14,154)"/>
<path d="M0 0 C1.98 0 3.96 0 6 0 C6 9.24 6 18.48 6 28 C4.02 28 2.04 28 0 28 C0 18.76 0 9.52 0 0 Z " fill="#959817" transform="translate(7,126)"/>
<path d="M0 0 C1.98 0 3.96 0 6 0 C6.226875 0.78375 6.45375 1.5675 6.6875 2.375 C7.74653828 5.2197245 7.74653828 5.2197245 10.5 6 C11.325 6.33 12.15 6.66 13 7 C13.66666667 8.66666667 14.33333333 10.33333333 15 12 C17.49034386 13.29660434 17.49034386 13.29660434 20 14 C21 15 21 15 21.0625 18.0625 C21.041875 19.031875 21.02125 20.00125 21 21 C18.69 21 16.38 21 14 21 C14 18.69 14 16.38 14 14 C11.69 14 9.38 14 7 14 C7 11.69 7 9.38 7 7 C4.69 7 2.38 7 0 7 C0 4.69 0 2.38 0 0 Z " fill="#737473" transform="translate(119,7)"/>
<path d="M0 0 C2.31 0 4.62 0 7 0 C7 2.31 7 4.62 7 7 C4.69 7 2.38 7 0 7 C0 9.31 0 11.62 0 14 C-4.62 14 -9.24 14 -14 14 C-14 11.69 -14 9.38 -14 7 C-10.37 7 -6.74 7 -3 7 C-3 6.34 -3 5.68 -3 5 C-2.34 4.67 -1.68 4.34 -1 4 C-0.34786708 1.97536745 -0.34786708 1.97536745 0 0 Z " fill="#F5D592" transform="translate(126,154)"/>
<path d="M0 0 C0.33 0 0.66 0 1 0 C1 13.53 1 27.06 1 41 C-2.96 41 -6.92 41 -11 41 C-11.33 41.99 -11.66 42.98 -12 44 C9.78 44 31.56 44 54 44 C54 44.33 54 44.66 54 45 C31.89 45 9.78 45 -13 45 C-13.33 42.69 -13.66 40.38 -14 38 C-10 37 -10 37 0 37 C0 24.79 0 12.58 0 0 Z " fill="#B9B864" transform="translate(20,45)"/>
<path d="M0 0 C2.31 0 4.62 0 7 0 C7.33 4.62 7.66 9.24 8 14 C3.05 14 -1.9 14 -7 14 C-7 11.69 -7 9.38 -7 7 C-4.69 7 -2.38 7 0 7 C0 4.69 0 2.38 0 0 Z " fill="#A0A197" transform="translate(77,70)"/>
<path d="M0 0 C4.62 0 9.24 0 14 0 C14 2.31 14 4.62 14 7 C11.69 7 9.38 7 7 7 C7 9.31 7 11.62 7 14 C4.69 14 2.38 14 0 14 C0 9.38 0 4.76 0 0 Z " fill="#FEF6A0" transform="translate(126,140)"/>
<path d="M0 0 C2.31 0 4.62 0 7 0 C7 6.93 7 13.86 7 21 C4.69 21 2.38 21 0 21 C0 14.07 0 7.14 0 0 Z " fill="#C1C1BA" transform="translate(189,98)"/>
<path d="M0 0 C2.31 0 4.62 0 7 0 C7 4.62 7 9.24 7 14 C2.38 14 -2.24 14 -7 14 C-7 11.69 -7 9.38 -7 7 C-4.69 7 -2.38 7 0 7 C0 4.69 0 2.38 0 0 Z " fill="#999FB0" transform="translate(91,56)"/>
<path d="M0 0 C4.62 0 9.24 0 14 0 C14 2.31 14 4.62 14 7 C11.69 7 9.38 7 7 7 C7 9.31 7 11.62 7 14 C5.00045254 14.04254356 2.99958364 14.04080783 1 14 C0 13 0 13 -0.09765625 10.05859375 C-0.06510417 6.70572917 -0.03255208 3.35286458 0 0 Z " fill="#9B9DAF" transform="translate(84,70)"/>
<path d="M0 0 C2.31 0 4.62 0 7 0 C7 4.62 7 9.24 7 14 C2.38 14 -2.24 14 -7 14 C-7 12.02 -7 10.04 -7 8 C-3.535 7.505 -3.535 7.505 0 7 C0 4.69 0 2.38 0 0 Z " fill="#FEF6A0" transform="translate(91,168)"/>
<path d="M0 0 C2.31 0 4.62 0 7 0 C7 4.62 7 9.24 7 14 C2.38 14 -2.24 14 -7 14 C-6.67 11.69 -6.34 9.38 -6 7 C-4.02 7 -2.04 7 0 7 C0 4.69 0 2.38 0 0 Z " fill="#FAD194" transform="translate(119,140)"/>
<path d="M0 0 C0.99 0 1.98 0 3 0 C5.11780664 3.17670996 5.24892146 3.96247318 5.23046875 7.59765625 C5.22853516 8.48130859 5.22660156 9.36496094 5.22460938 10.27539062 C5.21236328 11.19513672 5.20011719 12.11488281 5.1875 13.0625 C5.18685547 13.98611328 5.18621094 14.90972656 5.18554688 15.86132812 C5.14046308 22.71907383 5.14046308 22.71907383 4 25 C2.35 25 0.7 25 -1 25 C-1.0289337 21.20834926 -1.04677601 17.41672673 -1.0625 13.625 C-1.07087891 12.54476562 -1.07925781 11.46453125 -1.08789062 10.3515625 C-1.09111328 9.3203125 -1.09433594 8.2890625 -1.09765625 7.2265625 C-1.10289307 6.27346191 -1.10812988 5.32036133 -1.11352539 4.33837891 C-1 2 -1 2 0 0 Z " fill="#FDF7E5" transform="translate(23,155)"/>
<path d="M0 0 C1.98 0 3.96 0 6 0 C6.33 1.98 6.66 3.96 7 6 C9.97 6.495 9.97 6.495 13 7 C13 11.62 13 16.24 13 21 C10.69 21 8.38 21 6 21 C6 16.38 6 11.76 6 7 C4.02 7 2.04 7 0 7 C0 4.69 0 2.38 0 0 Z " fill="#605D5C" transform="translate(155,42)"/>
<path d="M0 0 C13.365 0.495 13.365 0.495 27 1 C27 5.29 27 9.58 27 14 C25.02 14 23.04 14 21 14 C21 11.69 21 9.38 21 7 C21.33 7 21.66 7 22 7 C22 8.98 22 10.96 22 13 C23.32 13 24.64 13 26 13 C26 9.37 26 5.74 26 2 C18.08 2 10.16 2 2 2 C2.33 2.66 2.66 3.32 3 4 C4.32 4.33 5.64 4.66 7 5 C7 7.97 7 10.94 7 14 C4.69 14 2.38 14 0 14 C0 9.38 0 4.76 0 0 Z " fill="#7E8317" transform="translate(168,49)"/>
<path d="M0 0 C0.66 0 1.32 0 2 0 C2 11.88 2 23.76 2 36 C-0.31 36 -2.62 36 -5 36 C-5 35.01 -5 34.02 -5 33 C-3.515 32.505 -3.515 32.505 -2 32 C-0.88589345 18.37913511 -0.88589345 18.37913511 -1.94140625 4.8125 C-2 3 -2 3 0 0 Z " fill="#979B04" transform="translate(200,165)"/>
<path d="M0 0 C1.98 0 3.96 0 6 0 C6 27.39 6 54.78 6 83 C5.67 83 5.34 83 5 83 C5 57.92 5 32.84 5 7 C3.35 7 1.7 7 0 7 C0 4.69 0 2.38 0 0 Z " fill="#242502" transform="translate(204,119)"/>
<path d="M0 0 C2.97 0.495 2.97 0.495 6 1 C6 5.95 6 10.9 6 16 C6.66 16 7.32 16 8 16 C7.67 16.99 7.34 17.98 7 19 C4.69 19 2.38 19 0 19 C0 12.73 0 6.46 0 0 Z " fill="#919810" transform="translate(21,182)"/>
<path d="M0 0 C0.33 0.66 0.66 1.32 1 2 C3.02463255 2.65213292 3.02463255 2.65213292 5 3 C3.68 3 2.36 3 1 3 C1 5.31 1 7.62 1 10 C2.98 10 4.96 10 7 10 C7 12.31 7 14.62 7 17 C4.69 17 2.38 17 0 17 C0 14.69 0 12.38 0 10 C-2.31 10 -4.62 10 -7 10 C-7 7.69 -7 5.38 -7 3 C-4.69 3 -2.38 3 0 3 C0 2.01 0 1.02 0 0 Z " fill="#BDB9B8" transform="translate(154,39)"/>
<path d="M0 0 C1.134375 0.020625 2.26875 0.04125 3.4375 0.0625 C3.4375 2.3725 3.4375 4.6825 3.4375 7.0625 C1.1275 7.0625 -1.1825 7.0625 -3.5625 7.0625 C-3.5625 9.3725 -3.5625 11.6825 -3.5625 14.0625 C-5.8725 14.0625 -8.1825 14.0625 -10.5625 14.0625 C-10.75 11.1875 -10.75 11.1875 -10.5625 8.0625 C-7.5625 6.0625 -7.5625 6.0625 -4.5625 6.0625 C-4.583125 5.258125 -4.60375 4.45375 -4.625 3.625 C-4.52750049 -0.37247981 -4.13731851 0.07258454 0 0 Z " fill="#8E896B" transform="translate(59.5625,55.9375)"/>
<path d="M0 0 C2.31 0 4.62 0 7 0 C8.125 4.75 8.125 4.75 7 7 C10.465 6.505 10.465 6.505 14 6 C14 8.64 14 11.28 14 14 C12.02 14 10.04 14 8 14 C7.67 12.02 7.34 10.04 7 8 C4.69 7.67 2.38 7.34 0 7 C0 4.69 0 2.38 0 0 Z " fill="#F8D691" transform="translate(63,154)"/>
<path d="M0 0 C2.5625 0.1875 2.5625 0.1875 4.5625 2.1875 C4.6875 4.8125 4.6875 4.8125 4.5625 7.1875 C2.2525 7.1875 -0.0575 7.1875 -2.4375 7.1875 C-2.4375 9.4975 -2.4375 11.8075 -2.4375 14.1875 C-4.7475 14.1875 -7.0575 14.1875 -9.4375 14.1875 C-9.4375 11.8775 -9.4375 9.5675 -9.4375 7.1875 C-7.4575 7.1875 -5.4775 7.1875 -3.4375 7.1875 C-3.458125 6.218125 -3.47875 5.24875 -3.5 4.25 C-3.41863208 0.2629717 -3.41863208 0.2629717 0 0 Z " fill="#F3D792" transform="translate(44.4375,146.8125)"/>
<path d="M0 0 C1.65 0 3.3 0 5 0 C5 6.6 5 13.2 5 20 C3.35 20 1.7 20 0 20 C0 13.4 0 6.8 0 0 Z " fill="#959B09" transform="translate(183,99)"/>
<path d="M0 0 C2.31 0 4.62 0 7 0 C7.33 1.98 7.66 3.96 8 6 C10.97 6.495 10.97 6.495 14 7 C14 9.31 14 11.62 14 14 C11.69 14 9.38 14 7 14 C7 11.69 7 9.38 7 7 C4.69 7 2.38 7 0 7 C0 4.69 0 2.38 0 0 Z " fill="#EED78A" transform="translate(63,112)"/>
<path d="M0 0 C2.31 0 4.62 0 7 0 C7.33 1.98 7.66 3.96 8 6 C10.97 6.495 10.97 6.495 14 7 C14 9.31 14 11.62 14 14 C11.69 14 9.38 14 7 14 C7 11.69 7 9.38 7 7 C4.69 7 2.38 7 0 7 C0 4.69 0 2.38 0 0 Z " fill="#57574E" transform="translate(189,77)"/>
<path d="M0 0 C2.31 0 4.62 0 7 0 C7 2.31 7 4.62 7 7 C5.02 7 3.04 7 1 7 C0.67 9.31 0.34 11.62 0 14 C-1.99954746 14.04254356 -4.00041636 14.04080783 -6 14 C-7 13 -7 13 -7.0625 9.9375 C-7.041875 8.968125 -7.02125 7.99875 -7 7 C-4.69 7 -2.38 7 0 7 C0 4.69 0 2.38 0 0 Z " fill="#C6C3AF" transform="translate(182,77)"/>
<path d="M0 0 C4.62 0 9.24 0 14 0 C14 2.31 14 4.62 14 7 C9.38 7 4.76 7 0 7 C0 4.69 0 2.38 0 0 Z " fill="#FEF49C" transform="translate(119,182)"/>
<path d="M0 0 C2.31 0 4.62 0 7 0 C7 1.98 7 3.96 7 6 C5.02 6.66 3.04 7.32 1 8 C0.67 9.98 0.34 11.96 0 14 C-2.31 14 -4.62 14 -7 14 C-7 11.69 -7 9.38 -7 7 C-4.69 7 -2.38 7 0 7 C0 4.69 0 2.38 0 0 Z " fill="#FEF2A7" transform="translate(154,168)"/>
<path d="M0 0 C2.31 0 4.62 0 7 0 C7 4.62 7 9.24 7 14 C4.69 14 2.38 14 0 14 C0 9.38 0 4.76 0 0 Z " fill="#FEF7A0" transform="translate(161,140)"/>
<path d="M0 0 C2.31 0 4.62 0 7 0 C7 4.62 7 9.24 7 14 C4.69 14 2.38 14 0 14 C0 9.38 0 4.76 0 0 Z " fill="#A19E9A" transform="translate(140,70)"/>
<path d="M0 0 C2.31 0 4.62 0 7 0 C7 13.53 7 27.06 7 41 C4.03 41 1.06 41 -2 41 C-2 40.67 -2 40.34 -2 40 C0.64 40 3.28 40 6 40 C6 27.46 6 14.92 6 2 C4.35 2.33 2.7 2.66 1 3 C1 13.56 1 24.12 1 35 C0.67 35 0.34 35 0 35 C0 23.45 0 11.9 0 0 Z " fill="#9F9B26" transform="translate(196,161)"/>
<path d="M0 0 C2.64 0 5.28 0 8 0 C8 2.31 8 4.62 8 7 C6.02 7.33 4.04 7.66 2 8 C1.67 9.98 1.34 11.96 1 14 C-0.98 14 -2.96 14 -5 14 C-5.625 11.625 -5.625 11.625 -6 9 C-4 7 -4 7 -1.375 6.875 C-0.59125 6.91625 0.1925 6.9575 1 7 C0.67 4.69 0.34 2.38 0 0 Z " fill="#F4D58D" transform="translate(167,105)"/>
<path d="M0 0 C4.62 0 9.24 0 14 0 C14 2.64 14 5.28 14 8 C9.71 7.67 5.42 7.34 1 7 C0.67 4.69 0.34 2.38 0 0 Z " fill="#FCF79C" transform="translate(70,182)"/>
<path d="M0 0 C0.33 0.66 0.66 1.32 1 2 C12.55 2 24.1 2 36 2 C36 2.33 36 2.66 36 3 C24.45 3 12.9 3 1 3 C1 5.31 1 7.62 1 10 C-1.31 10 -3.62 10 -6 10 C-6 7.69 -6 5.38 -6 3 C-4.02 2.01 -2.04 1.02 0 0 Z " fill="#939326" transform="translate(34,32)"/>
<path d="M0 0 C1.98 0 3.96 0 6 0 C6 1.98 6 3.96 6 6 C4.02 6.66 2.04 7.32 0 8 C0 9.98 0 11.96 0 14 C-2.31 14 -4.62 14 -7 14 C-7 11.69 -7 9.38 -7 7 C-4.69 7 -2.38 7 0 7 C0 4.69 0 2.38 0 0 Z " fill="#929533" transform="translate(63,42)"/>
<path d="M0 0 C0 2.31 0 4.62 0 7 C-2.31 7 -4.62 7 -7 7 C-7 9.31 -7 11.62 -7 14 C-9.31 14 -11.62 14 -14 14 C-14 11.69 -14 9.38 -14 7 C-11.36 6.67 -8.72 6.34 -6 6 C-6 4.35 -6 2.7 -6 1 C-1.125 0 -1.125 0 0 0 Z " fill="#928770" transform="translate(49,70)"/>
<path d="M0 0 C1.65 0 3.3 0 5 0 C5 2.97 5 5.94 5 9 C3.68 8.67 2.36 8.34 1 8 C1 9.98 1 11.96 1 14 C-1.64 13.67 -4.28 13.34 -7 13 C-7 11.02 -7 9.04 -7 7 C-4.69 7 -2.38 7 0 7 C0 4.69 0 2.38 0 0 Z " fill="#F5D395" transform="translate(182,126)"/>
<path d="M0 0 C0.33 0 0.66 0 1 0 C1 10.89 1 21.78 1 33 C-0.98 33 -2.96 33 -5 33 C-5.08086147 31.20906809 -5.13912702 29.41710372 -5.1875 27.625 C-5.22230469 26.62726563 -5.25710937 25.62953125 -5.29296875 24.6015625 C-5.14794922 23.31378906 -5.14794922 23.31378906 -5 22 C-4.01 21.34 -3.02 20.68 -2 20 C-1.67 20.99 -1.34 21.98 -1 23 C-0.67 15.41 -0.34 7.82 0 0 Z " fill="#0B2628" transform="translate(209,64)"/>
<path d="M0 0 C4.48398784 -0.09903473 8.96739292 -0.17154483 13.45214844 -0.21972656 C14.97700085 -0.23981599 16.50177648 -0.26709316 18.02636719 -0.30175781 C20.22089598 -0.35039796 22.41440469 -0.37299396 24.609375 -0.390625 C25.92905273 -0.41157227 27.24873047 -0.43251953 28.60839844 -0.45410156 C32 0 32 0 34.46191406 1.89941406 C36 4 36 4 36 6 C37.32 6.66 38.64 7.32 40 8 C38.02 8 36.04 8 34 8 C34 10.31 34 12.62 34 15 C33.67 15 33.34 15 33 15 C33 10.71 33 6.42 33 2 C31.20433594 2.01160156 29.40867188 2.02320313 27.55859375 2.03515625 C25.18489688 2.04453845 22.81119887 2.05363819 20.4375 2.0625 C19.25607422 2.07087891 18.07464844 2.07925781 16.85742188 2.08789062 C11.13136928 2.10392999 5.63605518 2.0510705 0 1 C0 0.67 0 0.34 0 0 Z " fill="#BDC180" transform="translate(162,48)"/>
<path d="M0 0 C1.98 0 3.96 0 6 0 C6 9.24 6 18.48 6 28 C4.02 28 2.04 28 0 28 C0 18.76 0 9.52 0 0 Z M1 2 C1 8.93 1 15.86 1 23 C2.32 23.33 3.64 23.66 5 24 C5 16.74 5 9.48 5 2 C3.68 2 2.36 2 1 2 Z " fill="#8F931E" transform="translate(14,154)"/>
<path d="M0 0 C2 2 2 2 2.23046875 4.12890625 C2.20919922 5.33353516 2.20919922 5.33353516 2.1875 6.5625 C2.17783203 7.77099609 2.17783203 7.77099609 2.16796875 9.00390625 C2 11 2 11 1 12 C-1.01594582 12.23427778 -3.038474 12.41336124 -5.0625 12.5625 C-6.71958984 12.68818359 -6.71958984 12.68818359 -8.41015625 12.81640625 C-9.26480469 12.87699219 -10.11945313 12.93757812 -11 13 C-10.4375 10.125 -10.4375 10.125 -9 7 C-6.67793475 6.29508733 -4.34406932 5.62787571 -2 5 C-0.48207356 2.50358872 -0.48207356 2.50358872 0 0 Z " fill="#F8CF97" transform="translate(137,127)"/>
<path d="M0 0 C1.98 0 3.96 0 6 0 C6 4.29 6 8.58 6 13 C4.02 13 2.04 13 0 13 C0 8.71 0 4.42 0 0 Z " fill="#F2D093" transform="translate(169,141)"/>
<path d="M0 0 C0.33 0.66 0.66 1.32 1 2 C1.99 2 2.98 2 4 2 C4.22119939 4.62450086 4.42746669 7.24870486 4.625 9.875 C4.68945312 10.62136719 4.75390625 11.36773437 4.8203125 12.13671875 C4.96087365 14.0870047 4.98759849 16.04469467 5 18 C4.34 18.66 3.68 19.32 3 20 C2.01 20 1.02 20 0 20 C0 13.4 0 6.8 0 0 Z " fill="#959409" transform="translate(190,120)"/>
<path d="M0 0 C1.65 0 3.3 0 5 0 C5 5.28 5 10.56 5 16 C3.68 16 2.36 16 1 16 C0.14701624 12.32612505 -0.10789471 8.9552607 -0.0625 5.1875 C-0.05347656 4.21167969 -0.04445312 3.23585938 -0.03515625 2.23046875 C-0.02355469 1.49441406 -0.01195312 0.75835937 0 0 Z " fill="#7B8006" transform="translate(197,66)"/>
<path d="M0 0 C2.6875 -0.375 2.6875 -0.375 6 0 C8.06398076 1.823983 9.39041053 3.72763839 11 6 C9.68 6 8.36 6 7 6 C7 7.65 7 9.3 7 11 C4.625 10.8125 4.625 10.8125 2 10 C0.05074939 6.65842753 -0.21821974 3.81884554 0 0 Z " fill="#979892" transform="translate(112,1)"/>
<path d="M0 0 C0.33 0 0.66 0 1 0 C1.04254356 1.99954746 1.04080783 4.00041636 1 6 C0 7 0 7 -2.5625 7.0625 C-3.7690625 7.0315625 -3.7690625 7.0315625 -5 7 C-5 8.65 -5 10.3 -5 12 C-7.64 12.33 -10.28 12.66 -13 13 C-13 10.69 -13 8.38 -13 6 C-7.06 5.505 -7.06 5.505 -1 5 C-0.67 3.35 -0.34 1.7 0 0 Z " fill="#909139" transform="translate(48,64)"/>
<path d="M0 0 C1.65 0 3.3 0 5 0 C5.33 4.29 5.66 8.58 6 13 C4.02 13 2.04 13 0 13 C0 8.71 0 4.42 0 0 Z " fill="#FDF89E" transform="translate(176,141)"/>
<path d="M0 0 C0.33 0 0.66 0 1 0 C1 3.3 1 6.6 1 10 C-1.31 10 -3.62 10 -6 10 C-6.33 8.02 -6.66 6.04 -7 4 C-10.3 3.67 -13.6 3.34 -17 3 C-17 2.67 -17 2.34 -17 2 C-15.85660156 1.93941406 -14.71320313 1.87882812 -13.53515625 1.81640625 C-12.04425695 1.73201572 -10.55337225 1.64736698 -9.0625 1.5625 C-8.30775391 1.52318359 -7.55300781 1.48386719 -6.77539062 1.44335938 C-3.08055813 1.55961976 -3.08055813 1.55961976 0 0 Z " fill="#A9A79A" transform="translate(90,25)"/>
<path d="M0 0 C5.67830078 -0.02464705 11.35657069 -0.04283462 17.03491211 -0.05493164 C18.96818585 -0.05997256 20.90145576 -0.06680519 22.8347168 -0.07543945 C25.60726872 -0.08751565 28.37977041 -0.09323057 31.15234375 -0.09765625 C32.45702858 -0.10539818 32.45702858 -0.10539818 33.78807068 -0.11329651 C35.85905814 -0.11349185 37.92994324 -0.06208168 40 0 C41 1 41 1 41 7 C36.38 7 31.76 7 27 7 C27 6.67 27 6.34 27 6 C32.94 5.505 32.94 5.505 39 5 C39 3.68 39 2.36 39 1 C26.13 1 13.26 1 0 1 C0 0.67 0 0.34 0 0 Z " fill="#828225" transform="translate(43,28)"/>
<path d="M0 0 C2.31 0 4.62 0 7 0 C7 2.31 7 4.62 7 7 C4.69 7 2.38 7 0 7 C0 9.31 0 11.62 0 14 C-2.31 14 -4.62 14 -7 14 C-7 13.67 -7 13.34 -7 13 C-5.02 13 -3.04 13 -1 13 C-1.33 10.69 -1.66 8.38 -2 6 C-1.34 6 -0.68 6 0 6 C0 4.02 0 2.04 0 0 Z " fill="#908E7E" transform="translate(77,35)"/>
<path d="M0 0 C0.66 0.33 1.32 0.66 2 1 C2 11.56 2 22.12 2 33 C1.34 33 0.68 33 0 33 C0.33 24.75 0.66 16.5 1 8 C-0.65 8.66 -2.3 9.32 -4 10 C-3.43454163 6.04179141 -2.19097652 3.3340947 0 0 Z " fill="#F7D689" transform="translate(194,162)"/>
<path d="M0 0 C0.33 0 0.66 0 1 0 C1 2.31 1 4.62 1 7 C-1.31 7 -3.62 7 -6 7 C-6 9.31 -6 11.62 -6 14 C-8.31 14 -10.62 14 -13 14 C-13 11.69 -13 9.38 -13 7 C-11.7934375 7.0309375 -11.7934375 7.0309375 -10.5625 7.0625 C-8.06645115 7.29633621 -8.06645115 7.29633621 -7 6 C-4.66702567 5.95907063 -2.33294775 5.95758277 0 6 C0 4.02 0 2.04 0 0 Z " fill="#C9CA3B" transform="translate(48,56)"/>
<path d="M0 0 C0.66 0 1.32 0 2 0 C2 1.32 2 2.64 2 4 C2.66 4 3.32 4 4 4 C4.1953125 10.0546875 4.1953125 10.0546875 4 12 C3.34 12.66 2.68 13.32 2 14 C1.60235737 15.98821313 1.26224651 17.98944339 1 20 C2.98 20 4.96 20 7 20 C7 20.33 7 20.66 7 21 C4.69 21 2.38 21 0 21 C0 14.07 0 7.14 0 0 Z " fill="#C1BE9A" transform="translate(189,98)"/>
<path d="M0 0 C4.62 0 9.24 0 14 0 C14 0.33 14 0.66 14 1 C11.69 1 9.38 1 7 1 C7 3.31 7 5.62 7 8 C4.69 8 2.38 8 0 8 C0 5.36 0 2.72 0 0 Z " fill="#D8E6E6" transform="translate(133,69)"/>
<path d="M0 0 C1.98 0 3.96 0 6 0 C6.2475 0.78375 6.495 1.5675 6.75 2.375 C7.88704012 5.45624577 7.88704012 5.45624577 12 7 C8.04 7 4.08 7 0 7 C0 4.69 0 2.38 0 0 Z " fill="#747473" transform="translate(119,7)"/>
<path d="M0 0 C0.66 0 1.32 0 2 0 C2.02505615 0.68102783 2.0501123 1.36205566 2.07592773 2.0637207 C2.19190952 5.14683755 2.31462616 8.22965046 2.4375 11.3125 C2.47681641 12.38435547 2.51613281 13.45621094 2.55664062 14.56054688 C2.59853516 15.58857422 2.64042969 16.61660156 2.68359375 17.67578125 C2.72025146 18.62364502 2.75690918 19.57150879 2.79467773 20.5480957 C2.91430187 23.136171 2.91430187 23.136171 4 26 C2.68 26 1.36 26 0 26 C0 17.42 0 8.84 0 0 Z " fill="#FFFBEB" transform="translate(15,127)"/>
<path d="M0 0 C-0.66 2.31 -1.32 4.62 -2 7 C-3.98 7 -5.96 7 -8 7 C-8 4.69 -8 2.38 -8 0 C-4.94736336 -0.98120464 -3.05263664 -0.98120464 0 0 Z " fill="#F5DA90" transform="translate(71,140)"/>
<path d="M0 0 C2.31 0 4.62 0 7 0 C7 2.64 7 5.28 7 8 C4.69 8 2.38 8 0 8 C0 5.36 0 2.72 0 0 Z " fill="#FEF3A0" transform="translate(154,182)"/>
<path d="M0 0 C2.31 0 4.62 0 7 0 C7 2.64 7 5.28 7 8 C4.69 8 2.38 8 0 8 C0 5.36 0 2.72 0 0 Z " fill="#FEF59F" transform="translate(98,182)"/>
<path d="M0 0 C2.31 0 4.62 0 7 0 C7 2.31 7 4.62 7 7 C4.69 7.33 2.38 7.66 0 8 C0 5.36 0 2.72 0 0 Z " fill="#F9D499" transform="translate(112,98)"/>
<path d="M0 0 C2.64 0 5.28 0 8 0 C8 2.31 8 4.62 8 7 C5.69 7 3.38 7 1 7 C0.67 4.69 0.34 2.38 0 0 Z " fill="#EFDC88" transform="translate(27,133)"/>
<path d="M0 0 C2.31 0 4.62 0 7 0 C7 2.64 7 5.28 7 8 C4.69 7.67 2.38 7.34 0 7 C0 4.69 0 2.38 0 0 Z " fill="#F1D890" transform="translate(49,126)"/>
<path d="M0 0 C0 2.64 0 5.28 0 8 C-2.31 8 -4.62 8 -7 8 C-7 5.69 -7 3.38 -7 1 C-1.125 0 -1.125 0 0 0 Z " fill="#F2D88D" transform="translate(112,118)"/>
<path d="M0 0 C2.31 0 4.62 0 7 0 C7 2.31 7 4.62 7 7 C4.36 7 1.72 7 -1 7 C-0.67 4.69 -0.34 2.38 0 0 Z " fill="#F0D687" transform="translate(84,112)"/>
<path d="M0 0 C2.31 0 4.62 0 7 0 C7.33 2.31 7.66 4.62 8 7 C5.36 7 2.72 7 0 7 C0 4.69 0 2.38 0 0 Z " fill="#F1D794" transform="translate(147,105)"/>
<path d="M0 0 C2.31 0 4.62 0 7 0 C7 2.31 7 4.62 7 7 C4.69 7.33 2.38 7.66 0 8 C0 5.36 0 2.72 0 0 Z " fill="#F1D98C" transform="translate(98,98)"/>
<path d="M0 0 C2.31 0 4.62 0 7 0 C7 2.31 7 4.62 7 7 C4.69 7 2.38 7 0 7 C0 4.69 0 2.38 0 0 Z " fill="#FDF2A0" transform="translate(168,182)"/>
<path d="M0 0 C2.31 0 4.62 0 7 0 C7 2.31 7 4.62 7 7 C4.69 7 2.38 7 0 7 C0 4.69 0 2.38 0 0 Z " fill="#FDF5A3" transform="translate(140,182)"/>
<path d="M0 0 C2.31 0 4.62 0 7 0 C7 2.31 7 4.62 7 7 C4.69 7 2.38 7 0 7 C0 4.69 0 2.38 0 0 Z " fill="#FEEDA0" transform="translate(168,168)"/>
<path d="M0 0 C2.31 0 4.62 0 7 0 C7 2.31 7 4.62 7 7 C4.69 7 2.38 7 0 7 C0 4.69 0 2.38 0 0 Z " fill="#F3D798" transform="translate(28,168)"/>
<path d="M0 0 C2.31 0 4.62 0 7 0 C7 2.31 7 4.62 7 7 C4.69 7 2.38 7 0 7 C0 4.69 0 2.38 0 0 Z " fill="#F0D592" transform="translate(91,161)"/>
<path d="M0 0 C2.31 0 4.62 0 7 0 C7 2.31 7 4.62 7 7 C4.69 7 2.38 7 0 7 C0 4.69 0 2.38 0 0 Z " fill="#FEF29F" transform="translate(126,161)"/>
<path d="M0 0 C2.31 0 4.62 0 7 0 C7 2.31 7 4.62 7 7 C4.69 7 2.38 7 0 7 C0 4.69 0 2.38 0 0 Z " fill="#F3D692" transform="translate(84,154)"/>
<path d="M0 0 C2.875 -0.1875 2.875 -0.1875 6 0 C8 3 8 3 7.625 5.1875 C7.41875 5.785625 7.2125 6.38375 7 7 C4.69 7 2.38 7 0 7 C0 4.69 0 2.38 0 0 Z " fill="#F0D68D" transform="translate(77,147)"/>
<path d="M0 0 C2.31 0 4.62 0 7 0 C7 2.31 7 4.62 7 7 C4.69 7 2.38 7 0 7 C0 4.69 0 2.38 0 0 Z " fill="#EED990" transform="translate(161,133)"/>
<path d="M0 0 C2.31 0 4.62 0 7 0 C7 2.31 7 4.62 7 7 C4.69 7 2.38 7 0 7 C0 4.69 0 2.38 0 0 Z " fill="#F3D592" transform="translate(63,126)"/>
<path d="M0 0 C2.31 0 4.62 0 7 0 C7 2.31 7 4.62 7 7 C4.69 7 2.38 7 0 7 C0 4.69 0 2.38 0 0 Z " fill="#C4C2C8" transform="translate(196,119)"/>
<path d="M0 0 C2.31 0 4.62 0 7 0 C7 2.31 7 4.62 7 7 C4.69 7 2.38 7 0 7 C0 4.69 0 2.38 0 0 Z " fill="#F6D487" transform="translate(91,119)"/>
<path d="M0 0 C2.31 0 4.62 0 7 0 C7 2.31 7 4.62 7 7 C4.69 7 2.38 7 0 7 C0 4.69 0 2.38 0 0 Z " fill="#F4D48F" transform="translate(168,119)"/>
<path d="M0 0 C2.31 0 4.62 0 7 0 C7.1875 2.875 7.1875 2.875 7 6 C4 8 4 8 1.8125 7.625 C1.214375 7.41875 0.61625 7.2125 0 7 C0 4.69 0 2.38 0 0 Z " fill="#F4D790" transform="translate(35,112)"/>
<path d="M0 0 C2.31 0 4.62 0 7 0 C7 2.31 7 4.62 7 7 C4.69 7 2.38 7 0 7 C0 4.69 0 2.38 0 0 Z " fill="#C7C7C4" transform="translate(203,112)"/>
<path d="M0 0 C2.31 0 4.62 0 7 0 C7 2.31 7 4.62 7 7 C4.69 7 2.38 7 0 7 C0 4.69 0 2.38 0 0 Z " fill="#BFBFBC" transform="translate(210,105)"/>
<path d="M0 0 C2.31 0 4.62 0 7 0 C7 2.31 7 4.62 7 7 C4.69 7 2.38 7 0 7 C0 4.69 0 2.38 0 0 Z " fill="#BBBEB9" transform="translate(203,98)"/>
<path d="M0 0 C2.31 0 4.62 0 7 0 C7 2.31 7 4.62 7 7 C4.69 7 2.38 7 0 7 C0 4.69 0 2.38 0 0 Z " fill="#EDD990" transform="translate(77,98)"/>
<path d="M0 0 C2.31 0 4.62 0 7 0 C7 2.31 7 4.62 7 7 C4.69 7 2.38 7 0 7 C0 4.69 0 2.38 0 0 Z " fill="#CDCC63" transform="translate(175,98)"/>
<path d="M0 0 C2.31 0 4.62 0 7 0 C7 2.31 7 4.62 7 7 C4.69 7 2.38 7 0 7 C0 4.69 0 2.38 0 0 Z " fill="#C0C3BF" transform="translate(189,84)"/>
<path d="M0 0 C2.31 0 4.62 0 7 0 C7 2.31 7 4.62 7 7 C4.69 7 2.38 7 0 7 C0 4.69 0 2.38 0 0 Z " fill="#1A376F" transform="translate(133,77)"/>
<path d="M0 0 C2.31 0 4.62 0 7 0 C7 2.31 7 4.62 7 7 C4.69 7 2.38 7 0 7 C0 4.69 0 2.38 0 0 Z " fill="#8E9FB8" transform="translate(119,77)"/>
<path d="M0 0 C2.31 0 4.62 0 7 0 C7 2.31 7 4.62 7 7 C4.69 7 2.38 7 0 7 C0 4.69 0 2.38 0 0 Z " fill="#1F3A60" transform="translate(112,77)"/>
<path d="M0 0 C2.31 0 4.62 0 7 0 C7 2.31 7 4.62 7 7 C4.69 7 2.38 7 0 7 C0 4.69 0 2.38 0 0 Z " fill="#173772" transform="translate(70,77)"/>
<path d="M0 0 C2.31 0 4.62 0 7 0 C7 2.31 7 4.62 7 7 C4.69 7 2.38 7 0 7 C0 4.69 0 2.38 0 0 Z " fill="#9C9FAB" transform="translate(98,77)"/>
<path d="M0 0 C2.31 0 4.62 0 7 0 C7 2.31 7 4.62 7 7 C4.69 7 2.38 7 0 7 C0 4.69 0 2.38 0 0 Z " fill="#1E3564" transform="translate(91,77)"/>
<path d="M0 0 C2.31 0 4.62 0 7 0 C7 2.31 7 4.62 7 7 C4.69 7 2.38 7 0 7 C0 4.69 0 2.38 0 0 Z " fill="#E5E2D9" transform="translate(175,77)"/>
<path d="M0 0 C2.31 0 4.62 0 7 0 C7 2.31 7 4.62 7 7 C4.69 7 2.38 7 0 7 C0 4.69 0 2.38 0 0 Z " fill="#D0E0F0" transform="translate(91,70)"/>
<path d="M0 0 C2.31 0 4.62 0 7 0 C7 2.31 7 4.62 7 7 C4.69 7 2.38 7 0 7 C0 4.69 0 2.38 0 0 Z " fill="#18357E" transform="translate(77,70)"/>
<path d="M0 0 C2.31 0 4.62 0 7 0 C7 2.31 7 4.62 7 7 C4.69 7 2.38 7 0 7 C0 4.69 0 2.38 0 0 Z " fill="#535147" transform="translate(182,70)"/>
<path d="M0 0 C2.31 0 4.62 0 7 0 C7 2.31 7 4.62 7 7 C4.69 7 2.38 7 0 7 C0 4.69 0 2.38 0 0 Z " fill="#1A3972" transform="translate(119,70)"/>
<path d="M0 0 C2.31 0 4.62 0 7 0 C7 2.31 7 4.62 7 7 C4.69 7 2.38 7 0 7 C0 4.69 0 2.38 0 0 Z " fill="#C4C0BD" transform="translate(175,70)"/>
<path d="M0 0 C2.31 0 4.62 0 7 0 C7 2.31 7 4.62 7 7 C4.69 7 2.38 7 0 7 C0 4.69 0 2.38 0 0 Z " fill="#1A337C" transform="translate(98,70)"/>
<path d="M0 0 C2.31 0 4.62 0 7 0 C7 2.31 7 4.62 7 7 C4.69 7 2.38 7 0 7 C0 4.69 0 2.38 0 0 Z " fill="#17367F" transform="translate(126,63)"/>
<path d="M0 0 C2.31 0 4.62 0 7 0 C7 2.31 7 4.62 7 7 C4.69 7 2.38 7 0 7 C0 4.69 0 2.38 0 0 Z " fill="#9A9DB4" transform="translate(112,63)"/>
<path d="M0 0 C2.31 0 4.62 0 7 0 C7 2.31 7 4.62 7 7 C4.69 7 2.38 7 0 7 C0 4.69 0 2.38 0 0 Z " fill="#C7C3BD" transform="translate(168,63)"/>
<path d="M0 0 C2.31 0 4.62 0 7 0 C7 2.31 7 4.62 7 7 C4.69 7 2.38 7 0 7 C0 4.69 0 2.38 0 0 Z " fill="#2C281B" transform="translate(175,63)"/>
<path d="M0 0 C2.31 0 4.62 0 7 0 C7 2.31 7 4.62 7 7 C4.69 7 2.38 7 0 7 C0 4.69 0 2.38 0 0 Z " fill="#15377B" transform="translate(105,63)"/>
<path d="M0 0 C2.31 0 4.62 0 7 0 C7 2.31 7 4.62 7 7 C4.69 7 2.38 7 0 7 C0 4.69 0 2.38 0 0 Z " fill="#D5E2E9" transform="translate(98,63)"/>
<path d="M0 0 C2.31 0 4.62 0 7 0 C7 2.31 7 4.62 7 7 C4.69 7 2.38 7 0 7 C0 4.69 0 2.38 0 0 Z " fill="#1D3771" transform="translate(84,63)"/>
<path d="M0 0 C2.31 0 4.62 0 7 0 C7 2.31 7 4.62 7 7 C4.69 7 2.38 7 0 7 C0 4.69 0 2.38 0 0 Z " fill="#0E2D25" transform="translate(196,56)"/>
<path d="M0 0 C2.31 0 4.62 0 7 0 C7 2.31 7 4.62 7 7 C4.69 7 2.38 7 0 7 C0 4.69 0 2.38 0 0 Z " fill="#ABAA96" transform="translate(161,56)"/>
<path d="M0 0 C2.31 0 4.62 0 7 0 C7 2.31 7 4.62 7 7 C4.69 7 2.38 7 0 7 C0 4.69 0 2.38 0 0 Z " fill="#94A0B6" transform="translate(98,56)"/>
<path d="M0 0 C2.31 0 4.62 0 7 0 C7 2.31 7 4.62 7 7 C4.69 7 2.38 7 0 7 C0 4.69 0 2.38 0 0 Z " fill="#203874" transform="translate(91,56)"/>
<path d="M0 0 C2.31 0 4.62 0 7 0 C7 2.31 7 4.62 7 7 C4.69 7 2.38 7 0 7 C0 4.69 0 2.38 0 0 Z " fill="#1F396E" transform="translate(112,56)"/>
<path d="M0 0 C2.31 0 4.62 0 7 0 C7 2.31 7 4.62 7 7 C4.69 7 2.38 7 0 7 C0 4.69 0 2.38 0 0 Z " fill="#273975" transform="translate(98,49)"/>
<path d="M0 0 C2.31 0 4.62 0 7 0 C7 2.31 7 4.62 7 7 C4.69 7 2.38 7 0 7 C0 4.69 0 2.38 0 0 Z " fill="#C3C0BD" transform="translate(147,42)"/>
<path d="M0 0 C2.31 0 4.62 0 7 0 C7 2.31 7 4.62 7 7 C4.69 7 2.38 7 0 7 C0 4.69 0 2.38 0 0 Z " fill="#273C73" transform="translate(105,42)"/>
<path d="M0 0 C2.31 0 4.62 0 7 0 C7 2.31 7 4.62 7 7 C4.69 7 2.38 7 0 7 C0 4.69 0 2.38 0 0 Z " fill="#595755" transform="translate(147,35)"/>
<path d="M0 0 C2.31 0 4.62 0 7 0 C7 2.31 7 4.62 7 7 C4.69 7 2.38 7 0 7 C0 4.69 0 2.38 0 0 Z " fill="#C2C1BD" transform="translate(133,28)"/>
<path d="M0 0 C2.31 0 4.62 0 7 0 C7 2.31 7 4.62 7 7 C4.69 7 2.38 7 0 7 C0 4.69 0 2.38 0 0 Z " fill="#C3C2BD" transform="translate(126,21)"/>
<path d="M0 0 C2.31 0 4.62 0 7 0 C7 2.31 7 4.62 7 7 C4.69 7 2.38 7 0 7 C0 4.69 0 2.38 0 0 Z " fill="#C2C0BE" transform="translate(119,14)"/>
<path d="M0 0 C2.31 0 4.62 0 7 0 C7 4.62 7 9.24 7 14 C3.7 14 0.4 14 -3 14 C-3 13.67 -3 13.34 -3 13 C-0.36 13 2.28 13 5 13 C5.04125 11.741875 5.0825 10.48375 5.125 9.1875 C5.15980469 8.12595703 5.15980469 8.12595703 5.1953125 7.04296875 C5.13254462 4.68640281 5.13254462 4.68640281 3 2 C2.01 3.32 1.02 4.64 0 6 C0 4.02 0 2.04 0 0 Z " fill="#F1D68F" transform="translate(126,168)"/>
<path d="M0 0 C2.31 0 4.62 0 7 0 C7.04254356 1.99954746 7.04080783 4.00041636 7 6 C6 7 6 7 2.9375 7.0625 C1.4834375 7.0315625 1.4834375 7.0315625 0 7 C0 4.69 0 2.38 0 0 Z " fill="#F5D392" transform="translate(133,161)"/>
<path d="M0 0 C1.99954746 -0.04254356 4.00041636 -0.04080783 6 0 C7 1 7 1 7.0625 4.0625 C7.041875 5.031875 7.02125 6.00125 7 7 C4.69 7 2.38 7 0 7 C0 4.69 0 2.38 0 0 Z " fill="#FEF1A0" transform="translate(161,161)"/>
<path d="M0 0 C2.31 0 4.62 0 7 0 C7 2.31 7 4.62 7 7 C5.00045254 7.04254356 2.99958364 7.04080783 1 7 C0 6 0 6 -0.0625 2.9375 C-0.041875 1.968125 -0.02125 0.99875 0 0 Z " fill="#F0D690" transform="translate(98,154)"/>
<path d="M0 0 C2.31 0 4.62 0 7 0 C7 2.31 7 4.62 7 7 C5.00045254 7.04254356 2.99958364 7.04080783 1 7 C0 6 0 6 -0.0625 2.9375 C-0.041875 1.968125 -0.02125 0.99875 0 0 Z " fill="#FDF5A3" transform="translate(168,154)"/>
<path d="M0 0 C2.31 0 4.62 0 7 0 C7 2.31 7 4.62 7 7 C5.00045254 7.04254356 2.99958364 7.04080783 1 7 C0 6 0 6 -0.0625 2.9375 C-0.041875 1.968125 -0.02125 0.99875 0 0 Z " fill="#F3D792" transform="translate(105,140)"/>
<path d="M0 0 C1.99954746 -0.04254356 4.00041636 -0.04080783 6 0 C7 1 7 1 7.0625 4.0625 C7.041875 5.031875 7.02125 6.00125 7 7 C4.69 7 2.38 7 0 7 C0 4.69 0 2.38 0 0 Z " fill="#F4D690" transform="translate(49,140)"/>
<path d="M0 0 C1.4540625 0.0309375 1.4540625 0.0309375 2.9375 0.0625 C2.9375 2.3725 2.9375 4.6825 2.9375 7.0625 C0.6275 7.0625 -1.6825 7.0625 -4.0625 7.0625 C-4.10504356 5.06295254 -4.10330783 3.06208364 -4.0625 1.0625 C-3.0625 0.0625 -3.0625 0.0625 0 0 Z " fill="#F5D592" transform="translate(116.0625,132.9375)"/>
<path d="M0 0 C1.65 0 3.3 0 5 0 C5 6.93 5 13.86 5 21 C4.01 20.67 3.02 20.34 2 20 C2.16371094 19.30519531 2.32742187 18.61039063 2.49609375 17.89453125 C3.04095996 14.7647184 3.09738483 11.86201917 3.0625 8.6875 C3.04896484 7.08455078 3.04896484 7.08455078 3.03515625 5.44921875 C3.02355469 4.64097656 3.01195312 3.83273438 3 3 C2.01 3 1.02 3 0 3 C0 2.01 0 1.02 0 0 Z " fill="#94972B" transform="translate(191,119)"/>
<path d="M0 0 C1.99954746 -0.04254356 4.00041636 -0.04080783 6 0 C7 1 7 1 7.0625 4.0625 C7.041875 5.031875 7.02125 6.00125 7 7 C4.69 7 2.38 7 0 7 C0 4.69 0 2.38 0 0 Z " fill="#CBCE59" transform="translate(182,119)"/>
<path d="M0 0 C2.31 0 4.62 0 7 0 C7.04254356 1.99954746 7.04080783 4.00041636 7 6 C6 7 6 7 2.9375 7.0625 C1.4834375 7.0315625 1.4834375 7.0315625 0 7 C0 4.69 0 2.38 0 0 Z " fill="#F0D68E" transform="translate(119,112)"/>
<path d="M0 0 C2.31 0 4.62 0 7 0 C7.04254356 1.99954746 7.04080783 4.00041636 7 6 C6 7 6 7 2.9375 7.0625 C1.4834375 7.0315625 1.4834375 7.0315625 0 7 C0 4.69 0 2.38 0 0 Z " fill="#121010" transform="translate(210,112)"/>
<path d="M0 0 C2.31 0 4.62 0 7 0 C7 2.31 7 4.62 7 7 C5.00045254 7.04254356 2.99958364 7.04080783 1 7 C0 6 0 6 -0.0625 2.9375 C-0.041875 1.968125 -0.02125 0.99875 0 0 Z " fill="#BAC1BA" transform="translate(84,77)"/>
<path d="M0 0 C2.31 0 4.62 0 7 0 C7 2.31 7 4.62 7 7 C5.00045254 7.04254356 2.99958364 7.04080783 1 7 C0 6 0 6 -0.0625 2.9375 C-0.041875 1.968125 -0.02125 0.99875 0 0 Z " fill="#E2E8E0" transform="translate(112,70)"/>
<path d="M0 0 C2.31 0 4.62 0 7 0 C7 2.31 7 4.62 7 7 C5.00045254 7.04254356 2.99958364 7.04080783 1 7 C0 6 0 6 -0.0625 2.9375 C-0.041875 1.968125 -0.02125 0.99875 0 0 Z " fill="#0C317B" transform="translate(140,70)"/>
<path d="M0 0 C2.31 0 4.62 0 7 0 C7.04254356 1.99954746 7.04080783 4.00041636 7 6 C6 7 6 7 2.9375 7.0625 C1.4834375 7.0315625 1.4834375 7.0315625 0 7 C0 4.69 0 2.38 0 0 Z " fill="#96A2AF" transform="translate(105,70)"/>
<path d="M0 0 C2.31 0 4.62 0 7 0 C7.04254356 1.99954746 7.04080783 4.00041636 7 6 C6 7 6 7 2.9375 7.0625 C1.4834375 7.0315625 1.4834375 7.0315625 0 7 C0 4.69 0 2.38 0 0 Z " fill="#9AA0AC" transform="translate(126,70)"/>
<path d="M0 0 C1.99954746 -0.04254356 4.00041636 -0.04080783 6 0 C7 1 7 1 7.0625 4.0625 C7.041875 5.031875 7.02125 6.00125 7 7 C4.69 7 2.38 7 0 7 C0 4.69 0 2.38 0 0 Z " fill="#5B5550" transform="translate(168,56)"/>
<path d="M0 0 C2.31 0 4.62 0 7 0 C7.04254356 1.99954746 7.04080783 4.00041636 7 6 C6 7 6 7 2.9375 7.0625 C1.4834375 7.0315625 1.4834375 7.0315625 0 7 C0 4.69 0 2.38 0 0 Z " fill="#9CA2AD" transform="translate(105,49)"/>
<path d="M0 0 C1.99954746 -0.04254356 4.00041636 -0.04080783 6 0 C7 1 7 1 7.0625 4.0625 C7.041875 5.031875 7.02125 6.00125 7 7 C4.69 7 2.38 7 0 7 C0 4.69 0 2.38 0 0 Z " fill="#4D4D4B" transform="translate(133,21)"/>
<path d="M0 0 C2.31 0.33 4.62 0.66 7 1 C7 2.98 7 4.96 7 7 C4.69 7 2.38 7 0 7 C0 4.69 0 2.38 0 0 Z " fill="#FDF2A1" transform="translate(175,175)"/>
<path d="M0 0 C2.31 0 4.62 0 7 0 C7 2.31 7 4.62 7 7 C5.02 7 3.04 7 1 7 C0.67 4.69 0.34 2.38 0 0 Z " fill="#FDF49D" transform="translate(154,154)"/>
<path d="M0 0 C2.97 0.495 2.97 0.495 6 1 C7.125 5.75 7.125 5.75 6 8 C4.02 8 2.04 8 0 8 C0 5.36 0 2.72 0 0 Z " fill="#F6D088" transform="translate(77,132)"/>
<path d="M0 0 C1.99954746 -0.04254356 4.00041636 -0.04080783 6 0 C7 1 7 1 7.0625 4.0625 C7.041875 5.031875 7.02125 6.00125 7 7 C5.00045254 7.04254356 2.99958364 7.04080783 1 7 C0 6 0 6 -0.0625 2.9375 C-0.041875 1.968125 -0.02125 0.99875 0 0 Z " fill="#F1D990" transform="translate(133,112)"/>
<path d="M0 0 C2.31 0 4.62 0 7 0 C7 2.31 7 4.62 7 7 C5.02 7 3.04 7 1 7 C0.67 4.69 0.34 2.38 0 0 Z " fill="#F1D396" transform="translate(154,98)"/>
<path d="M0 0 C2.31 0.33 4.62 0.66 7 1 C7 2.98 7 4.96 7 7 C4.69 7 2.38 7 0 7 C0 4.69 0 2.38 0 0 Z " fill="#C2C094" transform="translate(182,91)"/>
<path d="M0 0 C2.31 0 4.62 0 7 0 C7 2.31 7 4.62 7 7 C5.02 7 3.04 7 1 7 C0.67 4.69 0.34 2.38 0 0 Z " fill="#C0C3C1" transform="translate(196,91)"/>
<path d="M0 0 C2.31 0 4.62 0 7 0 C7 1.98 7 3.96 7 6 C4.69 6.33 2.38 6.66 0 7 C0 4.69 0 2.38 0 0 Z " fill="#C6C96C" transform="translate(70,35)"/>
<path d="M0 0 C2.64 0 5.28 0 8 0 C8 0.66 8 1.32 8 2 C7.34 2 6.68 2 6 2 C6 3.65 6 5.3 6 7 C4.02 7 2.04 7 0 7 C0 4.69 0 2.38 0 0 Z " fill="#F5D990" transform="translate(35,175)"/>
<path d="M0 0 C1.98 0 3.96 0 6 0 C6 2.31 6 4.62 6 7 C4.02 7 2.04 7 0 7 C-1.125 2.25 -1.125 2.25 0 0 Z " fill="#ECD88A" transform="translate(57,168)"/>
<path d="M0 0 C1.98 0 3.96 0 6 0 C6.33 1.98 6.66 3.96 7 6 C5.02 6.66 3.04 7.32 1 8 C-0.35439668 5.29120665 -0.06501451 2.99066732 0 0 Z " fill="#F4D690" transform="translate(49,154)"/>
<path d="M0 0 C1.98 0 3.96 0 6 0 C7.125 4.75 7.125 4.75 6 7 C4.02 7 2.04 7 0 7 C0 4.69 0 2.38 0 0 Z " fill="#F3D78F" transform="translate(91,133)"/>
<path d="M0 0 C0 2.31 0 4.62 0 7 C-2.31 7 -4.62 7 -7 7 C-7.1875 4.625 -7.1875 4.625 -7 2 C-4 0 -4 0 0 0 Z " fill="#8B8B87" transform="translate(98,21)"/>
<path d="M0 0 C1.98 0 3.96 0 6 0 C6 1.98 6 3.96 6 6 C3.69 6.33 1.38 6.66 -1 7 C-0.67 4.69 -0.34 2.38 0 0 Z " fill="#FEF2A2" transform="translate(183,168)"/>
<path d="M0 0 C0.66 0 1.32 0 2 0 C2 2.64 2 5.28 2 8 C0.02 8 -1.96 8 -4 8 C-4.33 6.02 -4.66 4.04 -5 2 C-3.35 2 -1.7 2 0 2 C0 1.34 0 0.68 0 0 Z " fill="#EFD987" transform="translate(75,160)"/>
<path d="M0 0 C2.31 0 4.62 0 7 0 C6.67 2.31 6.34 4.62 6 7 C4.02 7 2.04 7 0 7 C0 4.69 0 2.38 0 0 Z " fill="#F5D692" transform="translate(91,147)"/>
<path d="M0 0 C2.64 0 5.28 0 8 0 C8 0.66 8 1.32 8 2 C5.69 2 3.38 2 1 2 C1 4.31 1 6.62 1 9 C-1.31 9 -3.62 9 -6 9 C-6 8.01 -6 7.02 -6 6 C-5.195625 5.7525 -4.39125 5.505 -3.5625 5.25 C-0.828919 4.27761141 -0.828919 4.27761141 -0.1875 1.875 C-0.125625 1.25625 -0.06375 0.6375 0 0 Z " fill="#E6F2FC" transform="translate(125,61)"/>
<path d="M0 0 C1.98 0 3.96 0 6 0 C6 2.31 6 4.62 6 7 C4.02 7 2.04 7 0 7 C0 4.69 0 2.38 0 0 Z " fill="#FCF6A1" transform="translate(183,154)"/>
<path d="M0 0 C2.31 0 4.62 0 7 0 C6.67 2.31 6.34 4.62 6 7 C4.33388095 7.042721 2.66617115 7.04063832 1 7 C0 6 0 6 -0.0625 2.9375 C-0.041875 1.968125 -0.02125 0.99875 0 0 Z " fill="#D7C470" transform="translate(189,140)"/>
<path d="M0 0 C1.98 0 3.96 0 6 0 C6 2.31 6 4.62 6 7 C4.02 7 2.04 7 0 7 C0 4.69 0 2.38 0 0 Z " fill="#080604" transform="translate(204,119)"/>
<path d="M0 0 C1.98 0 3.96 0 6 0 C6 2.31 6 4.62 6 7 C4.02 7 2.04 7 0 7 C0 4.69 0 2.38 0 0 Z " fill="#56543D" transform="translate(162,49)"/>
<path d="M0 0 C2.475 0.99 2.475 0.99 5 2 C5 3.65 5 5.3 5 7 C2.69 7 0.38 7 -2 7 C-1.125 1.125 -1.125 1.125 0 0 Z " fill="#848381" transform="translate(107,6)"/>
<path d="M0 0 C0.33 0 0.66 0 1 0 C1 2.97 1 5.94 1 9 C2.65 9.33 4.3 9.66 6 10 C6 11.65 6 13.3 6 15 C5.67 14.01 5.34 13.02 5 12 C1.04 12 -2.92 12 -7 12 C-6.67 10.68 -6.34 9.36 -6 8 C-6 8.99 -6 9.98 -6 11 C-4.35 10.67 -2.7 10.34 -1 10 C-0.67 6.7 -0.34 3.4 0 0 Z " fill="#FCFCBA" transform="translate(21,142)"/>
<path d="M0 0 C0 2.31 0 4.62 0 7 C-1.98 7 -3.96 7 -6 7 C-6 5.02 -6 3.04 -6 1 C-3 0 -3 0 0 0 Z " fill="#8F9719" transform="translate(182,91)"/>
<path d="M0 0 C2.97 0.495 2.97 0.495 6 1 C6 2.98 6 4.96 6 7 C4.02 7 2.04 7 0 7 C0 4.69 0 2.38 0 0 Z " fill="#030704" transform="translate(204,90)"/>
<path d="M0 0 C0 2.31 0 4.62 0 7 C-2.31 7 -4.62 7 -7 7 C-6.67 5.02 -6.34 3.04 -6 1 C-1.125 0 -1.125 0 0 0 Z " fill="#8B8A83" transform="translate(49,70)"/>
<path d="M0 0 C0 2.31 0 4.62 0 7 C-2.31 7 -4.62 7 -7 7 C-6.67 5.02 -6.34 3.04 -6 1 C-1.125 0 -1.125 0 0 0 Z " fill="#928B81" transform="translate(63,56)"/>
<path d="M0 0 C2.31 0 4.62 0 7 0 C7 2.31 7 4.62 7 7 C4.03 6.505 4.03 6.505 1 6 C0.67 4.02 0.34 2.04 0 0 Z " fill="#BEBEBA" transform="translate(182,77)"/>
<path d="M0 0 C5 3 5 3 7 5 C5.35 5.33 3.7 5.66 2 6 C1.67 12.27 1.34 18.54 1 25 C0.67 25 0.34 25 0 25 C0 16.75 0 8.5 0 0 Z " fill="#748C71" transform="translate(203,58)"/>
<path d="M0 0 C1.65 0 3.3 0 5 0 C5.33 1.98 5.66 3.96 6 6 C4.02 6.33 2.04 6.66 0 7 C0 4.69 0 2.38 0 0 Z " fill="#969815" transform="translate(56,49)"/>
<path d="M0 0 C1.98 0 3.96 0 6 0 C6 1.98 6 3.96 6 6 C4.02 6 2.04 6 0 6 C0 4.02 0 2.04 0 0 Z " fill="#EFD494" transform="translate(141,141)"/>
<path d="M0 0 C1.98 0 3.96 0 6 0 C6 1.98 6 3.96 6 6 C4.02 6 2.04 6 0 6 C0 4.02 0 2.04 0 0 Z " fill="#050401" transform="translate(197,127)"/>
<path d="M0 0 C1.98 0 3.96 0 6 0 C6 1.98 6 3.96 6 6 C4.02 6 2.04 6 0 6 C0 4.02 0 2.04 0 0 Z " fill="#F5D28D" transform="translate(127,98)"/>
<path d="M0 0 C1.98 0 3.96 0 6 0 C6 1.98 6 3.96 6 6 C4.02 6 2.04 6 0 6 C0 4.02 0 2.04 0 0 Z " fill="#4C4E3B" transform="translate(190,77)"/>
<path d="M0 0 C1.2065625 0.0309375 1.2065625 0.0309375 2.4375 0.0625 C1.4375 2.0625 0.4375 4.0625 -0.5625 6.0625 C1.0875 6.0625 2.7375 6.0625 4.4375 6.0625 C4.1075 6.7225 3.7775 7.3825 3.4375 8.0625 C1.1275 7.7325 -1.1825 7.4025 -3.5625 7.0625 C-3.60504356 5.06295254 -3.60330783 3.06208364 -3.5625 1.0625 C-2.5625 0.0625 -2.5625 0.0625 0 0 Z " fill="#FDF4A6" transform="translate(171.5625,111.9375)"/>
<path d="M0 0 C1.98 0 3.96 0 6 0 C6 1.98 6 3.96 6 6 C4.02 6 2.04 6 0 6 C0 4.02 0 2.04 0 0 Z " fill="#050503" transform="translate(211,98)"/>
<path d="M0 0 C1.66611905 -0.042721 3.33382885 -0.04063832 5 0 C6 1 6 1 6.0625 3.5625 C6.041875 4.366875 6.02125 5.17125 6 6 C4.02 6 2.04 6 0 6 C0 4.02 0 2.04 0 0 Z " fill="#484645" transform="translate(141,28)"/>
<path d="M0 0 C1.32 0 2.64 0 4 0 C4 1.65 4 3.3 4 5 C4.99 5 5.98 5 7 5 C7 5.66 7 6.32 7 7 C4.69 7 2.38 7 0 7 C0 4.69 0 2.38 0 0 Z " fill="#C0C278" transform="translate(175,56)"/>
<path d="M0 0 C0.33 0 0.66 0 1 0 C1 2.31 1 4.62 1 7 C-1.31 7 -3.62 7 -6 7 C-5.67 5.35 -5.34 3.7 -5 2 C-3.35 2 -1.7 2 0 2 C0 1.34 0 0.68 0 0 Z " fill="#918A80" transform="translate(69,49)"/>
<path d="M0 0 C1.98 0 3.96 0 6 0 C6 1.98 6 3.96 6 6 C4.02 6 2.04 6 0 6 C0 4.02 0 2.04 0 0 Z " fill="#7B7F12" transform="translate(28,36)"/>
<path d="M0 0 C2.69082872 0.17635452 5.32851446 0.61835921 8 1 C8 1.33 8 1.66 8 2 C5.69 2 3.38 2 1 2 C1 4.31 1 6.62 1 9 C-1.31 9 -3.62 9 -6 9 C-4.68 8.67 -3.36 8.34 -2 8 C-1.855625 6.865625 -1.71125 5.73125 -1.5625 4.5625 C-1 1 -1 1 0 0 Z " fill="#E0EDFA" transform="translate(104,40)"/>
<path d="M0 0 C2.31 0 4.62 0 7 0 C7 0.99 7 1.98 7 3 C5.02 3 3.04 3 1 3 C1 6.63 1 10.26 1 14 C0.67 14 0.34 14 0 14 C0 9.38 0 4.76 0 0 Z " fill="#82852C" transform="translate(196,63)"/>
<path d="M0 0 C4.62 0 9.24 0 14 0 C13.67 1.98 13.34 3.96 13 6 C12.67 4.68 12.34 3.36 12 2 C8.04 2 4.08 2 0 2 C0 1.34 0 0.68 0 0 Z " fill="#FEF9B0" transform="translate(84,98)"/>
<path d="M0 0 C1.98 0 3.96 0 6 0 C6 1.32 6 2.64 6 4 C4.824375 4.4640625 4.824375 4.4640625 3.625 4.9375 C1.07669872 5.92875038 1.07669872 5.92875038 -1 7 C-0.67 4.69 -0.34 2.38 0 0 Z " fill="#F2D38F" transform="translate(176,154)"/>
<path d="M0 0 C1.65 0 3.3 0 5 0 C5 1.98 5 3.96 5 6 C3.35 6 1.7 6 0 6 C0 4.02 0 2.04 0 0 Z " fill="#93980D" transform="translate(42,63)"/>
<path d="M0 0 C1.65 0 3.3 0 5 0 C5 1.65 5 3.3 5 5 C3.35 5.33 1.7 5.66 0 6 C0 4.02 0 2.04 0 0 Z " fill="#F7CA98" transform="translate(155,162)"/>
<path d="M0 0 C1.98 0 3.96 0 6 0 C5.67 1.32 5.34 2.64 5 4 C3.35 4.33 1.7 4.66 0 5 C0 3.35 0 1.7 0 0 Z " fill="#FCF9A0" transform="translate(113,141)"/>
<path d="M0 0 C0.99 0 1.98 0 3 0 C3 1.65 3 3.3 3 5 C4.32 5.66 5.64 6.32 7 7 C4.69 7 2.38 7 0 7 C0 4.69 0 2.38 0 0 Z " fill="#BAC277" transform="translate(189,70)"/>
<path d="M0 0 C0.33 0 0.66 0 1 0 C1 2.31 1 4.62 1 7 C-1.31 7 -3.62 7 -6 7 C-6 6.34 -6 5.68 -6 5 C-5.38125 4.731875 -4.7625 4.46375 -4.125 4.1875 C-1.7004767 3.04443152 -1.7004767 3.04443152 0 0 Z " fill="#E2F1FA" transform="translate(97,49)"/>
<path d="M0 0 C1.65 0 3.3 0 5 0 C5 1.65 5 3.3 5 5 C3.35 5.33 1.7 5.66 0 6 C0 4.02 0 2.04 0 0 Z " fill="#939913" transform="translate(63,42)"/>
<path d="M0 0 C1.485 0.99 1.485 0.99 3 2 C3 2.66 3 3.32 3 4 C4.32 4.33 5.64 4.66 7 5 C6.67 5.99 6.34 6.98 6 8 C3.03 7.505 3.03 7.505 0 7 C0 4.69 0 2.38 0 0 Z " fill="#74792A" transform="translate(168,49)"/>
<path d="M0 0 C0 1.98 0 3.96 0 6 C-1.65 6 -3.3 6 -5 6 C-5 4.35 -5 2.7 -5 1 C-1.125 0 -1.125 0 0 0 Z " fill="#89847A" transform="translate(76,42)"/>
<path d="M0 0 C1.98 0 3.96 0 6 0 C6 1.65 6 3.3 6 5 C4.35 4.67 2.7 4.34 1 4 C0.67 2.68 0.34 1.36 0 0 Z " fill="#AAAC99" transform="translate(113,7)"/>
<path d="M0 0 C2.31 0 4.62 0 7 0 C7 1.65 7 3.3 7 5 C6.67 4.01 6.34 3.02 6 2 C5.01 2 4.02 2 3 2 C2.67 2.99 2.34 3.98 2 5 C1.34 5 0.68 5 0 5 C0 3.35 0 1.7 0 0 Z " fill="#90A0B9" transform="translate(77,77)"/>
<path d="M0 0 C1.65 0 3.3 0 5 0 C5 1.65 5 3.3 5 5 C3.35 5 1.7 5 0 5 C0 3.35 0 1.7 0 0 Z " fill="#98970D" transform="translate(35,70)"/>
<path d="M0 0 C0.99 0 1.98 0 3 0 C3 2.31 3 4.62 3 7 C1.68 7 0.36 7 -1 7 C-0.67 4.69 -0.34 2.38 0 0 Z " fill="#CCCE53" transform="translate(60,42)"/>
<path d="M0 0 C0.99 0.99 1.98 1.98 3 3 C3.66 2.01 4.32 1.02 5 0 C5.66 0 6.32 0 7 0 C7 1.65 7 3.3 7 5 C4.69 5 2.38 5 0 5 C0 3.35 0 1.7 0 0 Z " fill="#EFD68E" transform="translate(175,170)"/>
<path d="M0 0 C2.31 0 4.62 0 7 0 C7 1.98 7 3.96 7 6 C6.01 6 5.02 6 4 6 C4 4.68 4 3.36 4 2 C2.68 2.33 1.36 2.66 0 3 C0 2.01 0 1.02 0 0 Z " fill="#FDF8AE" transform="translate(119,98)"/>
<path d="M0 0 C1.32 0 2.64 0 4 0 C4 2.64 4 5.28 4 8 C3.01 7.67 2.02 7.34 1 7 C0.67 4.69 0.34 2.38 0 0 Z " fill="#C6D15D" transform="translate(191,68)"/>
<path d="M0 0 C0.99 0 1.98 0 3 0 C3 1.65 3 3.3 3 5 C1.02 5 -0.96 5 -3 5 C-3 4.01 -3 3.02 -3 2 C-2.01 2 -1.02 2 0 2 C0 1.34 0 0.68 0 0 Z " fill="#102D82" transform="translate(95,57)"/>
<path d="M0 0 C2.475 0.495 2.475 0.495 5 1 C5 2.32 5 3.64 5 5 C3.35 5 1.7 5 0 5 C0 3.35 0 1.7 0 0 Z " fill="#0C2C8A" transform="translate(106,43)"/>
<path d="M0 0 C0 3.3 0 6.6 0 10 C-0.33 10 -0.66 10 -1 10 C-1 8.02 -1 6.04 -1 4 C-1.928125 4.309375 -1.928125 4.309375 -2.875 4.625 C-3.57625 4.74875 -4.2775 4.8725 -5 5 C-5.66 4.34 -6.32 3.68 -7 3 C-1.125 0 -1.125 0 0 0 Z " fill="#B3B35C" transform="translate(35,32)"/>
<path d="M0 0 C2.97 0.495 2.97 0.495 6 1 C4.68 1.33 3.36 1.66 2 2 C2 3.32 2 4.64 2 6 C3.32 6.66 4.64 7.32 6 8 C4.02 8 2.04 8 0 8 C0 5.36 0 2.72 0 0 Z " fill="#F4DE8F" transform="translate(77,132)"/>
<path d="M0 0 C0 1.98 0 3.96 0 6 C-2.31 6 -4.62 6 -7 6 C-2.38461538 0 -2.38461538 0 0 0 Z " fill="#A09E94" transform="translate(126,78)"/>
<path d="M0 0 C1.65 0 3.3 0 5 0 C5 1.65 5 3.3 5 5 C3.35 4.67 1.7 4.34 0 4 C0 2.68 0 1.36 0 0 Z " fill="#0A2E91" transform="translate(85,64)"/>
<path d="M0 0 C1.66611905 -0.042721 3.33382885 -0.04063832 5 0 C6 1 6 1 6.0625 3.5625 C6.041875 4.366875 6.02125 5.17125 6 6 C5.34 6 4.68 6 4 6 C4 4.68 4 3.36 4 2 C3.01 2 2.02 2 1 2 C0.67 3.32 0.34 4.64 0 6 C0 4.02 0 2.04 0 0 Z " fill="#4F4A32" transform="translate(169,56)"/>
<path d="M0 0 C1.32 0 2.64 0 4 0 C4.33 1.65 4.66 3.3 5 5 C3.02 5 1.04 5 -1 5 C-0.67 3.35 -0.34 1.7 0 0 Z " fill="#102B86" transform="translate(99,50)"/>
<path d="M0 0 C0.33 0 0.66 0 1 0 C1 1.65 1 3.3 1 5 C1.99 5 2.98 5 4 5 C4 4.01 4 3.02 4 2 C4.99 1.67 5.98 1.34 7 1 C7 2.65 7 4.3 7 6 C4.69 6 2.38 6 0 6 C0 4.02 0 2.04 0 0 Z " fill="#C6C9C1" transform="translate(203,99)"/>
<path d="M0 0 C0.103125 0.639375 0.20625 1.27875 0.3125 1.9375 C0.539375 2.618125 0.76625 3.29875 1 4 C1.99 4.33 2.98 4.66 4 5 C4 5.33 4 5.66 4 6 C2.35 6 0.7 6 -1 6 C-1 5.34 -1 4.68 -1 4 C-1.66 4 -2.32 4 -3 4 C-3 3.01 -3 2.02 -3 1 C-2.01 0.67 -1.02 0.34 0 0 Z " fill="#FBFCE2" transform="translate(110,34)"/>
<path d="M0 0 C2.31 0.33 4.62 0.66 7 1 C6.67 2.98 6.34 4.96 6 7 C3.95880212 5.38405168 1.95927063 3.7143618 0 2 C0 1.34 0 0.68 0 0 Z " fill="#AAAC52" transform="translate(22,200)"/>
<path d="M0 0 C0 1.65 0 3.3 0 5 C-1.65 5 -3.3 5 -5 5 C-5 3.68 -5 2.36 -5 1 C-1.125 0 -1.125 0 0 0 Z " fill="#FDFAA5" transform="translate(160,169)"/>
<path d="M0 0 C1.65 0 3.3 0 5 0 C4.67 1.32 4.34 2.64 4 4 C2.68 4 1.36 4 0 4 C0 2.68 0 1.36 0 0 Z " fill="#F9D18C" transform="translate(56,170)"/>
<path d="M0 0 C0.66 0 1.32 0 2 0 C1.67 1.65 1.34 3.3 1 5 C2.32 5 3.64 5 5 5 C5 5.66 5 6.32 5 7 C3.02 7 1.04 7 -1 7 C-0.67 4.69 -0.34 2.38 0 0 Z " fill="#EFD58E" transform="translate(113,147)"/>
<path d="M0 0 C0 0.99 0 1.98 0 3 C-0.99 3.33 -1.98 3.66 -3 4 C-3.33 4.66 -3.66 5.32 -4 6 C-4.66 6 -5.32 6 -6 6 C-6 4.35 -6 2.7 -6 1 C-3.92446352 0.4465236 -2.15634036 0 0 0 Z " fill="#FEFBB6" transform="translate(167,97)"/>
<path d="M0 0 C2.31 0.33 4.62 0.66 7 1 C4 3 4 3 2 3 C1.67 4.65 1.34 6.3 1 8 C0.67 8 0.34 8 0 8 C0 5.36 0 2.72 0 0 Z " fill="#8598BB" transform="translate(140,76)"/>
<path d="M0 0 C0.66 0 1.32 0 2 0 C2 2.31 2 4.62 2 7 C-0.64 6.67 -3.28 6.34 -6 6 C-6 5.67 -6 5.34 -6 5 C-4.02 5 -2.04 5 0 5 C0 3.35 0 1.7 0 0 Z " fill="#B9BDC3" transform="translate(68,77)"/>
<path d="M0 0 C2.88575819 0.39803561 3.82189513 0.79009069 5.75 3.0625 C6.1625 3.701875 6.575 4.34125 7 5 C4.69 5 2.38 5 0 5 C0 3.35 0 1.7 0 0 Z " fill="#C2BFB3" transform="translate(126,79)"/>
<path d="M0 0 C0.33 0.99 0.66 1.98 1 3 C2.65 3.33 4.3 3.66 6 4 C6 4.66 6 5.32 6 6 C4.02 6 2.04 6 0 6 C0 4.02 0 2.04 0 0 Z " fill="#CFCB75" transform="translate(182,120)"/>
<path d="M0 0 C0.99 0 1.98 0 3 0 C3 2.31 3 4.62 3 7 C2.01 7 1.02 7 0 7 C0 4.69 0 2.38 0 0 Z " fill="#BDBD94" transform="translate(196,119)"/>
<path d="M0 0 C0.66 0 1.32 0 2 0 C2.33 1.65 2.66 3.3 3 5 C0.03 4.505 0.03 4.505 -3 4 C-1.625 2 -1.625 2 0 0 Z " fill="#F8CD92" transform="translate(172,107)"/>
<path d="M0 0 C1.65 0 3.3 0 5 0 C5 1.32 5 2.64 5 4 C3.35 4 1.7 4 0 4 C0 2.68 0 1.36 0 0 Z " fill="#093186" transform="translate(113,78)"/>
<path d="M0 0 C0.66 0 1.32 0 2 0 C2 2.31 2 4.62 2 7 C0.02 7 -1.96 7 -4 7 C-2.68 6.34 -1.36 5.68 0 5 C0 3.35 0 1.7 0 0 Z " fill="#D5E1F3" transform="translate(117,70)"/>
<path d="M0 0 C2.31 0 4.62 0 7 0 C5.68 0.33 4.36 0.66 3 1 C3 2.32 3 3.64 3 5 C2.01 5.33 1.02 5.66 0 6 C0 4.02 0 2.04 0 0 Z " fill="#1F397B" transform="translate(140,70)"/>
<path d="M0 0 C1.32 0 2.64 0 4 0 C4 1.32 4 2.64 4 4 C3.34 4 2.68 4 2 4 C2 4.66 2 5.32 2 6 C1.34 6 0.68 6 0 6 C0 4.02 0 2.04 0 0 Z " fill="#E7E8D9" transform="translate(91,70)"/>
<path d="M0 0 C2.475 0.99 2.475 0.99 5 2 C5 2.99 5 3.98 5 5 C3.35 5 1.7 5 0 5 C0 3.35 0 1.7 0 0 Z " fill="#FDF99A" transform="translate(169,169)"/>
<path d="M0 0 C0.66 0.33 1.32 0.66 2 1 C2.625 3.5625 2.625 3.5625 3 6 C1.02 6 -0.96 6 -3 6 C-2.34 5.67 -1.68 5.34 -1 5 C-0.34444881 2.47266765 -0.34444881 2.47266765 0 0 Z " fill="#BDBCB5" transform="translate(207,113)"/>
<path d="M0 0 C0.99 0.495 0.99 0.495 2 1 C2 1.66 2 2.32 2 3 C2.99 3 3.98 3 5 3 C4.67 3.99 4.34 4.98 4 6 C3.34 6 2.68 6 2 6 C1.67 6.99 1.34 7.98 1 9 C0.67 6.03 0.34 3.06 0 0 Z " fill="#FEEDA5" transform="translate(153,102)"/>
<path d="M0 0 C1.4606285 2.64738916 2 3.89448334 2 7 C0.68 6.67 -0.64 6.34 -2 6 C-1.125 1.125 -1.125 1.125 0 0 Z " fill="#0F2B30" transform="translate(206,84)"/>
<path d="M0 0 C0.99 0 1.98 0 3 0 C3 1.65 3 3.3 3 5 C1.68 5 0.36 5 -1 5 C-0.67 3.35 -0.34 1.7 0 0 Z " fill="#0F3282" transform="translate(93,77)"/>
<path d="M0 0 C1.32 0 2.64 0 4 0 C3.67 1.65 3.34 3.3 3 5 C2.01 5 1.02 5 0 5 C0 3.35 0 1.7 0 0 Z " fill="#082F8C" transform="translate(121,71)"/>
<path d="M0 0 C0 1.32 0 2.64 0 4 C-1.65 4.33 -3.3 4.66 -5 5 C-5 3.68 -5 2.36 -5 1 C-3 0 -3 0 0 0 Z " fill="#E0E5D5" transform="translate(103,64)"/>
<path d="M0 0 C0.99 0.495 0.99 0.495 2 1 C2.185625 1.9590625 2.185625 1.9590625 2.375 2.9375 C2.80939427 5.19851273 2.80939427 5.19851273 5.0625 6.25 C5.701875 6.4975 6.34125 6.745 7 7 C4.69 7 2.38 7 0 7 C0 4.69 0 2.38 0 0 Z " fill="#253B04" transform="translate(196,56)"/>
<path d="M0 0 C1.32 0.33 2.64 0.66 4 1 C3.67 2.65 3.34 4.3 3 6 C2.01 6 1.02 6 0 6 C0 4.02 0 2.04 0 0 Z " fill="#4F4954" transform="translate(162,49)"/>
<path d="M0 0 C0.99 0 1.98 0 3 0 C3.33 0.99 3.66 1.98 4 3 C4.66 3.66 5.32 4.32 6 5 C4.02 5 2.04 5 0 5 C0 3.35 0 1.7 0 0 Z " fill="#484644" transform="translate(148,36)"/>
<path d="M0 0 C0.99 0 1.98 0 3 0 C2.67 1.65 2.34 3.3 2 5 C1.01 5 0.02 5 -1 5 C-0.67 3.35 -0.34 1.7 0 0 Z " fill="#F9CE98" transform="translate(136,148)"/>
<path d="M0 0 C1.98 0 3.96 0 6 0 C6 0.66 6 1.32 6 2 C4.02 2.66 2.04 3.32 0 4 C0 2.68 0 1.36 0 0 Z " fill="#F8D392" transform="translate(28,134)"/>
<path d="M0 0 C2.31 0 4.62 0 7 0 C7 1.32 7 2.64 7 4 C6.34 4 5.68 4 5 4 C5 3.34 5 2.68 5 2 C3.35 2 1.7 2 0 2 C0 1.34 0 0.68 0 0 Z " fill="#EED798" transform="translate(98,98)"/>
<path d="M0 0 C1.65 0 3.3 0 5 0 C4.34 0.66 3.68 1.32 3 2 C2.35232207 4.57061311 2.35232207 4.57061311 2 7 C1.34 7 0.68 7 0 7 C0 4.69 0 2.38 0 0 Z " fill="#AFADA0" transform="translate(161,56)"/>
<path d="M0 0 C1.65 0 3.3 0 5 0 C4.67 1.32 4.34 2.64 4 4 C3.01 4 2.02 4 1 4 C0.67 2.68 0.34 1.36 0 0 Z " fill="#FBCC8C" transform="translate(35,176)"/>
<path d="M0 0 C2.31 0 4.62 0 7 0 C6.071875 0.3403125 6.071875 0.3403125 5.125 0.6875 C2.38589791 2.37929835 1.94975528 3.99244161 1 7 C0.34 6.67 -0.32 6.34 -1 6 C-0.67 4.02 -0.34 2.04 0 0 Z " fill="#F2DC97" transform="translate(161,168)"/>
<path d="M0 0 C2.31 0 4.62 0 7 0 C6.01 1.485 6.01 1.485 5 3 C3.35 2.67 1.7 2.34 0 2 C0 1.34 0 0.68 0 0 Z " fill="#CFC559" transform="translate(189,140)"/>
<path d="M0 0 C2.475 0.495 2.475 0.495 5 1 C4.67 1.99 4.34 2.98 4 4 C2.68 4 1.36 4 0 4 C0 2.68 0 1.36 0 0 Z " fill="#C5BEC2" transform="translate(184,91)"/>
<path d="M0 0 C1.9375 0.3125 1.9375 0.3125 4 1 C4.33 1.99 4.66 2.98 5 4 C3.35 4 1.7 4 0 4 C0 2.68 0 1.36 0 0 Z " fill="#052C8E" transform="translate(113,58)"/>
</svg>
